<?xml version="1.0" encoding="UTF-8" standalone="no"?>
<!-- Generator: Adobe Illustrator 24.1.2, SVG Export Plug-In . SVG Version: 6.00 Build 0)  -->

<svg
   version="1.1"
   id="Layer_1"
   x="0px"
   y="0px"
   viewBox="0 0 2112 3072"
   xml:space="preserve"
   width="22in"
   height="32in"
   sodipodi:docname="cindy_lou_v06.svg"
   inkscape:version="1.4.2 (ebf0e940, 2025-05-08)"
   inkscape:export-filename="GRINCH CINDY LOU.png"
   inkscape:export-xdpi="300"
   inkscape:export-ydpi="300"
   xmlns:inkscape="http://www.inkscape.org/namespaces/inkscape"
   xmlns:sodipodi="http://sodipodi.sourceforge.net/DTD/sodipodi-0.dtd"
   xmlns="http://www.w3.org/2000/svg"
   xmlns:svg="http://www.w3.org/2000/svg"><sodipodi:namedview
   id="namedview7282"
   pagecolor="#ffffff"
   bordercolor="#000000"
   borderopacity="0.25"
   inkscape:showpageshadow="2"
   inkscape:pageopacity="0"
   inkscape:pagecheckerboard="0"
   inkscape:deskcolor="#d1d1d1"
   showgrid="true"
   inkscape:zoom="0.51236979"
   inkscape:cx="1245.1944"
   inkscape:cy="1162.2465"
   inkscape:window-width="2560"
   inkscape:window-height="942"
   inkscape:window-x="0"
   inkscape:window-y="25"
   inkscape:window-maximized="0"
   inkscape:current-layer="Layer_1"
   inkscape:document-units="in"><inkscape:grid
     id="grid9"
     units="in"
     originx="0"
     originy="0"
     spacingx="96"
     spacingy="96"
     empcolor="#0099e5"
     empopacity="0.30196078"
     color="#0099e5"
     opacity="0.14902"
     empspacing="5"
     enabled="false"
     visible="true" /></sodipodi:namedview><defs
   id="defs203" />
<style
   type="text/css"
   id="style2">
	.st0{fill:#FFFFFF;}
	.st1{fill:#241E13;}
	.st2{fill:#F39DAC;}
	.st3{fill:#EA272D;}
	.st4{fill:#F3CF80;}
	.st5{fill:#F0DD4B;}
	.st6{fill:#D82A2E;}
	.st7{fill:#4268AC;}
</style>
<g
   id="g198"
   transform="matrix(8.0185036,0,0,8.1809495,-1330.1852,-1731.2917)"
   inkscape:label="CINDY LOU"
   sodipodi:insensitive="true"
   style="display:inline">
	<path
   id="path6"
   class="st1"
   d="m 287.70078,213.1 c -0.99273,-0.0627 -1.50039,1.00078 -1.90039,2.30078 -1.6,4.7 -2.20078,9.59964 -1.30078,14.59961 0.7,4.3 3.50078,6.79922 7.80078,7.19922 4,0.4 6.19035,-0.42456 8.9731,-1.65162 1.3879,-0.612 3.32651,-2.54877 3.62651,-2.74877 2.1,0.1 3.80039,0.40117 5.40039,0.20117 1.7,-0.3 3.19883,-1.09961 4.79883,-1.59961 0.8,0.6 1.70156,1.4 2.60156,2 1.8,1.2 3.91322,1.36258 5.71322,0.16256 1.2,-0.8 1.91787,-1.49118 2.91787,-2.49118 0.6,-0.6 2.17656,-2.87986 2.17656,-2.87986 0,0 -0.005,2.32875 -0.0543,3.49177 -0.13614,3.20751 -0.50337,6.40184 -0.66677,9.60808 -0.51446,10.09486 -0.51133,20.19681 -0.98694,30.30784 -4.79997,-0.2 -9.5,-0.39961 -14.5,-0.59961 0.4,-1.1 0.6,-2.00078 1,-2.80078 1.1,-2.2 2.19883,-4.30039 3.29883,-6.40039 1.3,-2.5 2.60078,-5.09922 3.80078,-7.69922 0.2,-0.5 0.20078,-1.09922 0.30078,-1.69922 h -13.10156 c -0.2,0 -0.49883,0.0992 -0.79883,0.19922 -1,3.7 -1.09961,7.69961 -2.59961,11.59961 -2.4,-2.3 -3.1,-5.60039 -5.5,-7.40039 -2.1,1.1 -6.60156,5.8 -7.60156,8 2.9,2.5 5.80117,4.90117 8.20117,8.20117 -1.4,0.6 -2.49961,1.1 -3.59961,1.5 -3.89997,1.5 -7.60156,3.29961 -11.10156,5.59961 -1.8,1.2 -3.39844,2.69961 -4.39844,4.59961 -1.2,2.2 -0.8,4.10078 1,5.80078 l 1.5,1.19922 c -3.6,4.99997 -4.90039,10.50042 -4.90039,16.40039 0,4.99999 -0.20039,10.09961 -0.40039,15.09961 -0.2,3.7 -0.30039,7.5 -1.90039,11 -1.2,2.7 -2.69922,5.30078 -4.19922,7.80078 -1.6,2.7 -3.20078,5.49922 -3.80078,8.69922 -0.1,0.5 -0.3,0.90039 -0.5,1.40039 -1.47044,1.46104 -3.24963,2.08289 -5.09231,2.52113 -2.19177,0.52126 -4.95039,0.69248 -6.75853,0.0491 -1.4186,-0.50475 -3.44799,-1.47064 -3.44799,-1.47064 0,0 0.68416,2.11163 1.26583,3.04395 1.11013,1.77938 2.47808,3.46557 4.15586,4.724 2.65657,1.99258 5.40808,2.74476 8.34795,2.87044 1.96748,0.0841 5.23036,-1.33722 5.73036,-1.43722 0.3,0.1 0.39844,0.0992 0.39844,0.19922 0.6,0.8 1.10117,1.50078 1.70117,2.30078 4,5.5 8.40042,10.49883 14.40039,13.79883 0.6,0.3 1.29961,0.70117 1.09961,1.70117 -2.3,0.6 -4.7,1.09883 -7,1.79883 -2.5,0.8 -4.30117,2.69961 -6.20117,4.59961 -6.59997,-4.8 -13.69886,-8.39844 -21.29883,-10.89844 -0.3,-2.1 -0.40117,-3.90117 -0.70117,-5.70117 -0.3,-1.6 -0.59883,-3.29883 -1.29883,-4.79883 -2.2,-4.69997 -5.09961,-8.80039 -8.59961,-12.40039 -2.8,-2.8 -6.20159,-4.20039 -10.10156,-4.40039 -0.6,0 -1.19844,-0.0996 -1.89844,-0.0996 -4.09997,-5.49997 -7.00039,-11.59964 -8.90039,-18.09961 0.1,-0.3 0.20039,-0.60117 0.40039,-0.70117 0.7,-0.5 2.44579,-1.04818 3.39021,-1.94587 1.98865,-1.89023 2.50901,-4.35413 1.30901,-8.05413 -0.4,-1.4 -0.80078,-2.79961 -1.30078,-4.09961 -0.6,-1.4 -1.86488,-2.64418 -3.29883,-2.80078 -2.62382,-0.28654 -4.79039,2.81434 -7,3.70117 -4.2,1.7 -5.20117,8.70039 -1.20117,11.40039 0.4,0.3 0.80117,0.69844 1.20117,0.89844 1.6,1 2.29922,2.40156 2.69922,4.10156 0.9,3.8 1.90117,7.49922 2.70117,11.19922 0.4,2 1.29922,3.99961 1.19922,6.09961 -0.5,0.4 -0.90078,0.90117 -1.30078,1.20117 -2.5,1.8 -4.29922,4.2 -5.69922,7 -2.2,4.5 -3.2,9.19964 -3.5,14.09961 -0.1,1.2 0,2.49883 0,3.79883 -2.2,1.1 -4.1,2 -6,3 -17.49994,9.39997 -28.70081,23.40045 -32.80078,42.90039 -0.4,1.7 -1.09961,2.8 -2.59961,3.5 -0.9,0.5 -1.96323,1.1964 -2.09961,2.20117 -0.12546,0.92435 1.32227,2.4668 1.32227,2.4668 -1.28903,1.95223 -0.80008,4.35552 0.77734,5.93164 -0.3,2 -0.58986,4.4008 0.78711,5.76758 1.76354,1.75049 2.94709,2.08453 3.21289,7.43359 0.7,2.3 1.5,4.59922 2.5,6.69922 10.49997,21.59994 27.99967,33.4 51.59961,36.5 0.9,0.1 1.80117,0.0996 2.70117,0.0996 2.4,4.99997 4.80039,9.8012 6.90039,14.70117 5.8,13.59997 13.10003,26.30042 21.5,38.40039 2.8,4.1 4.36989,5.86572 6.25195,8.99414 1.21882,2.02594 2.71385,4.70404 3.24805,6.30469 -0.8,0.2 -1.40156,0.49961 -2.10156,0.59961 -1.6,0.4 -3.29844,0.6 -4.89844,1 -2,0.4 -3.90156,1.2 -5.60156,2.5 -1.5,1.2 -2.19961,2.7 -1.59961,4.5 1.4,2 3.6,1.80078 5.5,2.80078 -0.5,0.7 -1,1.30039 -1.5,1.90039 -0.7,0.9 -0.77734,2.70117 -0.27734,3.70117 0.79999,1.6 2.33293,2.01855 3.77734,2.36524 0.98385,0.23614 3.02344,-0.26758 3.02344,-0.26758 0,0 -0.42383,1.40039 -0.42383,1.90039 -0.1,1.2 0.50039,2.20039 1.40039,2.90039 1.6,1.3 3.40078,1.49922 5.30078,0.19922 1.3,-0.9 2.39922,-2.19883 3.69922,-3.29883 0.4,-0.4 0.90039,-0.69961 1.40039,-1.09961 0.4,0.4 0.59922,0.49922 0.69922,0.69922 1.4,2.2 3.50039,2.59922 5.90039,2.19922 1.9,-0.4 3.3,-1.39844 4.5,-2.89844 0.4,-0.6 0.72266,-2.1914 0.72266,-2.1914 0,0 4.2843,2.02148 6.55468,1.89062 1.4844,-0.0856 3.50606,-0.36436 4.11524,-1.7207 0.31641,-0.70448 -0.75196,-2.19141 -0.75196,-2.19141 0,0 3.06055,0.21289 3.56055,0.21289 1.9,0 3.45574,-1.02487 4,-2.5 0.52948,-1.43508 0.32109,-2.97695 -1.37891,-4.37695 -0.59999,-0.5 -2.74609,-1.46875 -2.74609,-1.46875 0,0 2.73992,-2.05145 2.65625,-3.51953 -0.10821,-1.89873 -2.23164,-3.73477 -3.93164,-4.13477 -1.7,-0.4 -3.50117,-0.60078 -5.20117,-0.80078 -0.7,-0.1 -0.99635,-0.16216 -1.99635,-0.26218 1.936,-15.95423 4.38806,-28.69473 6.5532,-37.2559 2.7,-10.59997 5.39774,-16.96935 6.89712,-25.16051 1.26272,-11.4907 0.83386,-21.58502 -2.12957,-31.65392 1.5,-1.2 2.27638,-2.5671 3.47638,-3.7671 4,-4.2 6.29922,-9.29961 7.19922,-15.09961 1.5,-9.49997 0.30156,-18.80042 -2.39844,-27.90039 -1.3,-4.49997 -3.20078,-8.90081 -4.80078,-13.30078 -0.3,-1 -0.80078,-2.90039 -0.80078,-2.90039 0,0 5.52225,0.0832 6.66104,-2.37655 1.24588,-2.69105 -1.22052,-5.64628 -1.22052,-5.64628 2.34369,0.79863 4.54405,-0.14098 5.36908,-1.84396 0.80602,-1.66372 0.50255,-2.79844 -1.83743,-5.23282 -1.83984,-1.91407 -2.41549,-2.11055 -6.57178,-4.5 3.1,-2.3 6.00078,-4.9 10.30078,-5 3.4,1.5 6.00039,4.10039 6.90039,7.90039 0.5,2.2 0.70575,4.40447 1.09961,6.59961 0.46763,2.60628 0.39528,5.436 1.5,7.80078 0.99935,-1.94712 1.26725,-3.08488 1.81136,-4.66017 0.59591,-1.72527 0.8152,-3.0002 1.58903,-5.24022 2,3.1 2.89883,6.4 5.79883,9 0.2,-1.3 0.17781,-3.2684 0.17781,-4.0684 0.1,-2.2 0.32218,-3.2316 0.32218,-5.4316 0,-4.9 2.1,-9.09922 4.5,-13.19922 0.6,-1 1.49961,-1.7 2.59961,-2 5.59997,-1.6 10.7012,-4.40117 15.70117,-7.20117 13.59997,-7.69997 21.10039,-19.60045 23.40039,-34.90039 0.58533,-6.89745 1.03114,-12.69516 -0.21882,-18.83396 4.3426,4.09406 6.38094,6.25862 10.11726,11.43552 0,0 4.04111,-11.02673 5.60156,-15.60156 -4.89997,-2.1 -9.6,-4.19883 -14.5,-6.29883 2.92956,-1.17044 7.59961,-3 7.59961,-3 0.0423,-4.98395 -0.29713,-15.17487 -0.29713,-15.17487 -6.14543,3.54242 -11.34404,7.23847 -16.30248,10.9737 -6.79997,-8.29997 -15.40159,-13.59883 -25.10156,-17.29883 2.9,-6.29997 25.4,-33.20039 30,-35.90039 0.1,0.4 0.20078,0.69961 0.30078,1.09961 0.8,4.49997 2.80081,6.30117 7.30078,6.70117 l 1.79883,0.29883 c 0.4,0.9 0.6,1.60078 1,2.30078 1.5,3 3.89961,3.99922 7.09961,3.19922 0.7,-0.2 1.30117,-0.79962 2.20117,-0.0996 0.1,0.6 0.0992,1.39922 0.19922,2.19922 0.1,1.1 0.2,2.3 0.5,3.5 0.8,3.2 2.7,5.40156 6,6.60156 -0.2,1.3 -0.39961,2.59883 -0.59961,3.79883 -0.7,3.4 0.99961,6.90039 4.09961,8.40039 5.99997,2.9 10.80117,-0.60081 13.70117,-4.80078 0.6,-0.9 0.29961,-1.59961 -0.90039,-2.59961 -1.6,0.3 -2.50117,1.6 -3.70117,2.5 -1.8,1.4 -3.8,2.1 -6,2 -2.5,-0.1 -3.89922,-1.79883 -3.69922,-4.29883 0.1,-1.8 0.79961,-3.40117 2.09961,-4.70117 0.9,-0.8 1.60117,-1.79883 2.20117,-2.79883 0.5,-0.9 0.69844,-2 -0.60156,-3 -1,0.3 -2.09922,0.7 -3.19922,1 -2.5,0.7 -4.10078,-7.8e-4 -5.30078,-2.30078 -1.2,-2.2 -1.29961,-4.6 -1.09961,-7 0,-0.7 0.10117,-1.4 0.20117,-2 -1.5,-2 -2.30156,-2.09922 -4.10156,-1.19922 -0.8,0.4 -1.59844,0.79961 -2.39844,1.09961 -1.3,0.5 -2.40117,0.1 -3.20117,-1 -0.3,-0.5 -0.59883,-1.09961 -0.79883,-1.59961 0.8,-2.1 3.89961,-3.30078 1.59961,-6.30078 -1.1,-0.1 -2.30039,-0.0992 -3.40039,-0.19922 -0.5,0.8 -0.90078,1.4 -1.30078,2 -1.2,1.6 -2.99922,1.89844 -4.69922,0.89844 -1.7,-1 -2.39922,-2.8 -1.69922,-4.5 0.4,-0.9 0.79922,-1.7 1.19922,-2.5 -0.4,-1.2 -1.19961,-1.89883 -2.59961,-2.29883 -0.9,0.6 -1.90078,1.2 -2.80078,2 -3.4,3.2 -6.8,6.29922 -10,9.69922 -9.28551,9.51736 -14.99106,19.06631 -22.05535,28.61376 -7.01094,-2.24549 -13.54429,-4.21298 -20.54426,-5.81298 0.37251,-6.31851 0.38662,-13.23694 0.5,-18.90039 0.2,-8.49997 0.49922,-17.09964 0.69922,-25.59961 0,-1.5 -0.3,-3.10117 -0.5,-4.70117 -0.1,-0.8 -0.66738,-1.96551 -1.5,-2 -0.80219,-0.0332 -1.19961,1.10078 -1.59961,1.80078 -0.8,1.4 -1.49883,2.79922 -2.29883,4.19922 -0.4,0.7 -0.70156,1.30039 -1.10156,1.90039 -1.8,2.2 -3.99883,2.20117 -5.79883,0.20117 0,-1.7 0.1,-3.20117 0,-4.70117 -0.1,-1.6 -0.90039,-2.79883 -2.40039,-3.29883 -1.5,-0.5 -2.50078,0.29844 -3.30078,1.39844 -0.76636,1.5042 0.0955,3.88294 0.30078,5.5 -2.8,1.9 -4.00078,2.00117 -6.30078,0.20117 -0.6,-1.8 0.26438,-5.68846 -2.59961,-5.40039 -3.01002,0.30276 -1.93204,6.15834 -1.29883,7.19922 -2.3,2.9 -6.60156,4.40039 -10.10156,3.40039 -3.1,-0.9 -4.7303,-2.03704 -4.79883,-6.29883 -0.0587,-3.64938 1.30411,-7.34534 1.79883,-10.80078 -0.0686,-1.84174 -0.71739,-2.92537 -1.89844,-2.99998 z m -65.26842,105.01449 c 0.70102,0.26356 0.8778,0.49528 1.76842,1.3859 -1.04517,1.85613 -3,4.19922 -3,4.19922 0,0 -0.46801,-3.77839 -0.69059,-5.69001 0.70899,-0.14693 1.32154,-0.12093 1.92217,0.10489 z m -4.33314,0.8859 c 0.3,2.9 0.70117,5.59883 1.20117,8.79883 -4.59997,-2.5 -5.00117,-6.39883 -1.20117,-8.79883 z m 7.66834,2.72232 c 0.8,2.8 -0.22477,5.20515 -4.16834,6.17807 1.72109,-2.77908 2.69757,-4.13284 4.16834,-6.17807 z m -4.94178,10.64292 c 1.8,2.39999 6.37383,13.93398 8.17383,16.83398 -1.2,0.3 -2.09961,0.50117 -3.09961,0.70117 -0.9,-2.9 -1.7,-5.60078 -2.5,-8.30078 0.2,-0.10002 -2.77422,-9.23437 -2.57422,-9.23437 z m 103.97461,5.13476 c 0.3,0.4 0.70039,0.6 0.90039,1 2.5,6.09997 0.2,14.80042 -5,18.90039 -2.7,2.1 -5.40117,1.99961 -7.70117,-0.40039 -1.1,-1 -1.89883,-2.3 -2.79883,-3.5 -0.3,-0.4 -0.20078,-0.9 -0.30078,-1.5 3.6,2.4 6.00039,1.40039 8.40039,-0.59961 2.8,-2.4 4.69922,-5.40039 5.69922,-8.90039 0.2,-0.8 0.20078,-1.69961 0.30078,-2.59961 0.1,-0.8 -0.2,-1.60039 0.5,-2.40039 z m -42,1.29883 c 2.7,1.9 5,2.10156 8,0.60156 -0.7,1.9 -1.60117,2.89883 -2.70117,3.79883 -0.9,0.79999 -1.89883,0.79961 -2.79883,0.0996 -1.3,-1 -1.9,-2.4 -2.5,-4.5 z"
   style="display:inline;fill:#000000"
   inkscape:label="BLACK BACKGROUND" /><path
   id="path1566"
   style="display:inline;opacity:1;fill:#ffffff;fill-opacity:1;stroke:#de8e00;stroke-width:0;stroke-linecap:round;stroke-miterlimit:100;paint-order:markers fill stroke"
   d="m 155.92773,124.62109 c -0.26506,-0.0309 -0.35731,0.51795 -0.4707,2.11719 -0.0696,0.98137 -0.23938,2.22209 -0.37891,2.75781 -1.19882,4.60261 -5.20886,9.49892 -8.66992,10.58594 -1.38674,0.43553 -2.5042,0.32559 -4.03515,-0.39844 -0.60993,-0.28845 -1.14144,-0.52343 -1.18164,-0.52343 -0.15319,0 -0.0644,0.75111 0.13281,1.12304 0.40836,0.77 2.25369,3.07635 3.04297,3.80274 0.80331,0.73929 1.60032,1.22855 2.44726,1.5039 0.24547,0.0798 0.89749,0.12426 1.44922,0.0977 3.73335,-0.18017 7.86361,-5.21465 9.07813,-11.06836 0.75712,-3.64914 0.20622,-8.6234 -1.08399,-9.79102 -0.13441,-0.12164 -0.24172,-0.19673 -0.33008,-0.20703 z m -42.02687,1.04799 c 0,0 0.41264,1.2157 0.5132,1.4442 0.4927,1.31685 1.36265,2.59081 2.11328,3.09375 0.90419,0.60581 1.74774,0.53776 2.71875,-0.21875 1.02573,-0.79914 2.86032,-3.51255 2.59214,-3.78073 -0.0412,-0.0412 -0.52638,0.41654 -0.85971,0.55417 -1.9486,0.80454 -3.81004,0.72905 -5.76563,-0.23438 -0.54863,-0.27028 -1.31203,-0.85826 -1.31203,-0.85826 z"
   transform="translate(168.9,213.1)"
   inkscape:label="WHITE" /><path
   id="path10"
   class="st3"
   d="m 308.49961,254.90078 c -0.2,1.1 -0.61638,3.37547 -1.04477,5.03524 -0.72164,2.79591 -0.68209,4.30445 -2.5649,8.27417 0,0 -2.30304,-2.51536 -3.38786,-3.83004 -1.10686,-1.3414 -2.28054,-2.73576 -3.18054,-4.13576 -1.5,1.8 -2.62115,2.95483 -4.02115,4.55483 2.6,2.7 5.00039,5.20078 7.40039,7.80078 2.8,-0.3 5.11032,-0.67729 8.01032,-1.23342 2.7,-5.29996 4.76502,-10.43333 7.66502,-16.13329 -3.98969,-0.25483 -5.57651,-0.13251 -8.87651,-0.33251 z m 84.30078,33.69922 -12.72552,9.65586 4.94434,12.25183 c 0,0 2.514,1.90018 4.014,3.30018 2.4467,2.50707 6.26718,6.59291 6.26718,6.59291 L 399.20078,310.6 c 0,0 -14.07418,-5.14252 -13.86374,-7.19617 0.16603,-1.62021 7.66257,-3.90344 7.66257,-3.90344 z m -166.5,63.59961 c 0.28968,3.75613 0.49883,6.60078 0.79883,9.80078 0.4,4.4 0.45134,7.39396 0.57161,11.09537 0.10397,3.19988 0.13989,7.34371 0.12956,9.60385 0.8,0.1 1.49883,0.19962 2.29883,0.0996 1.3,0 2.50078,-0.19844 3.80078,-0.39844 5.19996,-0.7 9.18506,-1.4127 13.45313,-3.14258 1.46025,-0.59185 2.45608,-1.01284 4.24609,-1.45898 -0.37911,0.54601 -0.86505,1.29531 -1.45117,1.79297 -0.77435,0.65748 -1.49384,1.02673 -2.64844,1.50781 -4.8,2 -9.80004,3.09961 -15,3.59961 -1.9,0.2 -3.69961,0.50117 -5.59961,0.70117 -0.90748,4.96661 -2.03279,8.84825 -2,13.29883 0.02,2.71388 1.58618,6.87739 4.28542,8.60326 2.46461,1.57584 6.27458,1.77826 8.77227,0.2554 3.52475,-2.14905 5.38692,-7.04173 5.3494,-11.16979 -0.0298,-3.27706 -4.40709,-8.78848 -4.40709,-8.78848 0,0 4.95865,2.83732 6.05625,5.28042 1.50139,3.34186 1.1451,7.54541 -0.10156,10.99041 -0.7806,2.15712 -2.33335,4.24475 -4.35508,5.32878 -3.27668,1.75692 -7.73692,2.68571 -11.09961,1.09961 -3.41126,-1.60901 -5.3019,-5.76143 -6.30078,-9.39844 -0.92605,-3.37183 0.19603,-6.998 0.57161,-10.47446 0.20771,-1.92264 0.82839,-4.82671 0.92839,-5.72671 -3.02122,-0.83143 -2.35605,-0.4099 -4.80978,-1.41819 -2.57279,-1.30488 -3.61725,-2.46907 -4.96639,-4.24073 l 5.68272,2.26978 4.34163,1.06766 c 0,0 0.40301,-5.83075 0.41939,-8.75107 0.0289,-5.14586 -0.066,-9.12749 -0.56601,-15.42745 -0.1,-1.7 -0.50078,-3.4 -0.80078,-5.5 -1,0.7 -1.59922,1.09961 -2.19922,1.59961 -1.5,1.4 -2.6,3.00078 -3.5,4.80078 -3.0691,7.20788 -4.32966,18.54034 -4.32966,18.54034 0,0 -3.46833,2.25887 -6.37151,3.55927 -7.42772,4.33955 -13.29525,7.67672 -18.44218,13.21881 -4.7398,5.10371 -8.77815,13.10298 -10.88595,17.83588 -1.59239,3.81872 -1.89454,6.4582 -2.98242,12.04883 2.76447,0.42587 7.5001,-0.0302 8.41016,1.99609 0.34654,0.7716 -1.07025,2.30079 -1.07025,2.30079 0,0 2.77076,0.69104 2.88851,1.82361 0.15117,1.45409 -3.14764,3.05413 -3.14764,3.05413 0,0 4.43488,0.78528 -0.65254,5.72552 -1.41098,1.6651 -4.65642,3.06677 -5.49178,4.40039 -0.56519,0.92174 0.30203,3.06829 0.77448,4.79713 0.95949,3.51112 2.20039,6.99922 3.90039,10.19922 1.2,2.3 2.70092,4.46565 4.19922,6.59961 1.01734,1.44894 2.04556,2.90192 3.24609,4.20312 1.54433,1.67384 3.15794,3.79631 4.96795,5.46503 2.50211,2.30679 5.68315,4.57133 8.08674,6.23224 3.35879,2.09532 7.42537,4.63041 11.45508,6.28125 10.13989,4.38066 20.78487,4.66565 30.84375,3.91797 11.69837,-0.93342 16.67787,-3.92976 23.96235,-8.19581 5.33844,-3.12638 10.11476,-8.03296 13.53765,-11.60302 1.9,-1.5 3.60117,-3.30039 4.70117,-5.40039 -0.9,-1.8 -2.0573,-3.19939 -3.01279,-4.84309 -0.77695,-1.33656 -2.67229,-2.27073 -2.20979,-4.07767 0.22376,-0.87419 1.97102,-1.93638 1.97102,-1.93638 0,0 -1.53974,-1.7535 -1.0492,-2.5853 0.33701,-0.57149 2.57111,-1.12496 2.57111,-1.12496 0,0 -0.88633,-1.4416 0.0595,-2.13008 0.73063,-0.53186 2.00412,-0.87529 3.07057,-0.90213 2.40726,-0.0606 4.5,0.19883 7,0.29883 -0.2,-1.1 -0.76704,-2.25998 -0.60156,-3.39844 0.17163,-1.18074 0.80156,-2.10117 1.60156,-3.20117 0.9,-1.4 1.29883,-2.69883 1.29883,-4.29883 0.1,-5.79996 -0.29961,-11.5016 -1.59961,-17.10156 -1.75818,-6.35554 -4.31405,-12.96717 -8.25586,-18.21289 -4.95851,-6.63293 -11.18117,-12.7855 -17.84375,-17.28711 -4.69996,-3 -9.70043,-4.99883 -14.90039,-6.79883 -0.5,-0.2 -0.90039,-0.50117 -1.40039,-0.70117 -0.13702,-2.69308 -0.31855,-5.67653 -1.05561,-8.40091 -0.6529,-2.41326 -1.46126,-4.46711 -2.94439,-6.89792 -1.69812,-2.78317 -4.69214,-6.63301 -5.90039,-7.80078 -1.45758,-1.53543 -4.46289,-2.85896 -7.00586,-3.31445 -3.06083,-0.54825 -6.8057,-0.002 -9.293,0.81445 z"
   style="display:inline"
   sodipodi:nodetypes="cscsccccccccccccsccccscccscssccsssscssssssccccccccccccsccscscccscssacccsccsscscsscscccccccsscsc"
   inkscape:label="RED" /><path
   id="path14"
   class="st4"
   d="m 316.49935,289.6673 c -1.12017,0.56958 2.27742,7.73361 4.27742,11.33361 -2.2,0.8 -4.89008,-2.01084 -4.89008,-2.01084 0,0 0.11292,5.01071 0.61292,8.41071 2.1,2.8 3.43238,4.00798 5.73238,6.90798 0.96707,1.01678 3.42404,3.70117 2.0684,4.79124 -1.27767,1.02738 -7.66775,-4.05483 -7.66775,-4.05483 0,0 1.17853,4.26446 -0.33225,4.85561 -1.69085,0.66161 -3.66121,-3.43888 -3.96121,-3.73888 -3.1,-3.8 -3.31802,-5.12861 -3.36319,-9.84989 0.1,-1.7 -0.0543,-3.75653 -0.75432,-5.25653 -1.33754,-2.4443 -3.69896,-7.62349 -3.69896,-7.62349 0,0 -0.82232,4.66723 -1.22232,6.36723 1.6,1.5 5.25095,3.17685 3.45674,3.35539 -0.9042,0.09 -5.69367,-2.95203 -8.80578,-3.17173 -2.40859,-0.17003 -4.93362,0.39135 -7.09241,1.47292 -2.15942,1.08189 -6.33624,5.66431 -5.65815,3.54455 0.56116,-1.75422 2.33057,-3.38528 3.96869,-4.55778 1.67807,-1.20109 3.66269,-1.60426 5.73053,-2.34261 -2.87025,-2.57409 -4.40652,-3.68944 -5.19922,-7.90039 -2.9,0.4 -4.7,2.19961 -6,4.09961 -1.9,3.4 -3.20078,7.00039 -3.30078,10.90039 -0.2,4.89998 -0.29961,9.69961 -0.59961,14.59961 -0.2,3.7 -0.50039,7.4 -0.90039,11 -0.5,4.09998 -2.49961,7.6 -4.59961,11 -1.2,2.1 -2.5,4.10078 -3.5,6.30078 -1.2,2.7 -1.20038,5.39961 0.0996,8.09961 0.4,0.7 0.69961,1.39961 1.09961,2.09961 3.5,6.29998 7.80002,11.80119 13.5,16.20117 3.9,3 8.10119,4.89883 13.20117,4.79883 4.6,-0.1 9.00002,-0.79883 13.5,-1.79883 5.3,-1.1 10.59963,-2.29961 16.09961,-2.59961 0.9,0 1.79961,-0.20078 2.59961,-0.30078 4,-7.59998 9.0008,-14.19922 14.80078,-20.19922 2.25108,-2.96412 8.57422,-7.49747 7.79883,-8.30078 -1.0928,-1.13215 -6.02036,4.21723 -7.90039,6 -1.5,1.5 -2.99961,3 -4.59961,4.5 -0.6,0.6 -1.09922,1.39922 -2.19922,1.19922 -0.6,-0.9 -0.0996,-1.69844 0.40039,-2.39844 1,-1.3 1.9,-2.7 3,-4 1.8,-2 3.7,-4 5.5,-6 2.8,-3.1 5.19922,-6.30117 6.69922,-10.20117 2.6,-6.59998 3.1,-13.50002 2.5,-20.5 -0.3,-4 -2.31136,-4.95392 -6.31136,-5.65392 -3,-0.5 -6.59033,-1.31097 -9.39033,-2.41097 -7.59998,-3 -12.3051,-6.96874 -19.9427,-13.16554 -1.57614,-1.27881 -3.61052,-4.38446 -4.75626,-3.80188 z m 14.00026,19.53231 c 1.03704,0.20192 1.80843,1.10419 2.59961,1.80078 1.27939,1.12643 2.59876,2.30789 3.42093,3.80112 1.01378,1.84126 1.82758,3.0328 1.70497,6.07084 -0.0348,0.86107 -0.72591,1.82726 -1.12591,2.32726 -0.3,-0.5 -0.8418,-2.91889 -1.00882,-3.65451 -0.8042,-3.54189 -1.30231,-4.02206 -3.49118,-6.14432 -1.26917,-1.35676 -2.12349,-3.33648 -2.0996,-4.20117 z m -42.5,3.59961 c 0,0 0.0738,2.78283 0.22206,4.7902 0.10673,1.44555 0.17657,2.86528 1.43401,5.2782 2.91046,0.22377 4.02872,3.57023 4.24432,6.4316 0.3,3.99998 -0.30078,7.8 -1.80078,11.5 -0.6,1.5 -1.49883,2.80078 -2.79883,3.80078 -2.2,1.6 -4.60078,1.29961 -6.30078,-0.90039 -1,-1.2 -1.49961,-2.59922 -1.59961,-4.19922 -0.4,-4.79998 1,-9.30039 3.5,-13.40039 0.4,-0.5 0.79922,-0.99922 1.19922,-1.69922 -1.73225,-1.73092 -2.76364,-2.82819 -3.63108,-4.45061 -0.4,-0.7 -1.26814,-4.65017 -1.06814,-5.85017 2.71129,5.72779 3.24445,6.93589 6.20059,9.08008 -0.49033,-1.88903 -1.21739,-3.81276 -1.20111,-5.74731 0.0182,-2.16226 1.60013,-4.63355 1.60013,-4.63355 z m 47,13.90039 c 0.0335,1.47872 -1.234,2.90887 -2.24383,4.09225 -1.65554,1.94005 -3.34689,2.5879 -6.04689,4.6879 0.8,0.1 1.81266,-0.26758 2.67363,-0.56499 1.66788,-0.57614 3.17343,-1.54435 4.75064,-2.33567 1.2941,-0.64928 1.7658,-1.23264 3.86645,-1.97911 -1.55225,2.393 -2.20345,2.57137 -3.55652,3.56456 -1.96152,1.43981 -3.51321,2.15485 -6.47521,3.37003 0.5102,0.70383 1.63006,0.66085 2.43212,0.46579 1.76917,-0.43025 2.6121,-1.0139 3.86671,-1.63329 1.49008,-0.73564 2.38077,-1.59862 4.33251,-2.46632 -0.49411,1.31763 -1.39723,2.70691 -3.20812,3.8884 -1.48755,0.97053 -3.63107,1.72845 -6.29188,2.81082 -0.1,1.7 0.20411,4.74603 -0.43348,6.99268 -1.0741,3.78481 -2.06651,7.00771 -5.56651,10.40771 -1,0.9 -2.29961,1.79922 -3.59961,2.19922 -4.6,1.2 -6.49961,0.40078 -9.09961,-3.19922 -1.3,-1.8 -1.99961,-3.8 -2.09961,-6 -0.4,-6.09998 1.51993,-10.79591 4.50305,-15.13092 1.12107,-1.6291 2.88013,-2.85334 4.70635,-3.61208 0.88078,-0.36594 1.88317,-0.41998 2.83608,-0.37926 1.10981,0.0474 2.24518,0.25548 3.25335,0.72187 1.42221,0.65793 2.66319,0.5838 3.81113,-0.0944 2.36457,-1.39706 3.56542,-2.3265 4.73418,-3.30384 0.64535,-0.53965 2.85507,-2.5021 2.85507,-2.5021 z m -40.45757,20.12682 c 1.78341,0.28119 3.52103,1.03672 4.73859,2.30217 1.30988,1.3614 3.40538,3.0031 2.27829,5.18962 -0.6111,1.18552 -2.15931,1.38101 -3.55931,0.98099 -1,-0.3 -2.1,-0.79961 -3,-0.59961 -2.6,0.4 -4.19961,-0.59961 -5.09961,-2.59961 -0.9,-0.6 -2.37529,-1.95771 -1.9597,-3.11056 0.78531,-2.17846 4.31431,-2.52365 6.60174,-2.163 z m -1.91938,1.20326 c -1.32155,-0.0129 -2.53951,0.27796 -3.04297,0.87304 -0.91542,1.08201 1.16797,2.06446 1.16797,2.06446 0.23148,0.9833 0.38555,1.34428 2.67187,2.30273 2.23061,0.93511 3.29102,0.10547 3.29102,0.10547 0,0 1.73872,1.31123 2.49023,0.72461 1.6374,-1.27815 -0.69173,-4.23591 -3.59375,-5.49219 -0.8654,-0.37463 -1.95651,-0.56813 -2.98437,-0.57812 z m -10.61329,9.04492 c 0,0 -0.24419,0.60274 -0.32301,0.91713 -0.20575,0.82066 -0.38597,1.10865 -0.38597,2.50865 1.7,6.19998 9.59963,9.60039 17.59961,7.40039 0.1,-0.5 0.43394,-1.36827 0.53394,-1.96827 2.2812,2.9974 3.84329,3.8115 6.13381,5.6808 -0.4,0.4 -1.98142,-0.39642 -2.98444,-0.5064 -2.68191,-0.29406 -4.9837,-0.6073 -8.0837,-0.4073 -6.19998,0.4 -10.69961,-2.50041 -14.09961,-7.40039 -0.4,-0.6 -0.79961,-1.1 -1.09961,-1.5 -0.9,-0.3 -1.70117,-0.6 -2.70117,-1 2,-1.4 2.09941,-1.39844 3.137,-2.11541 0.76376,-0.52776 2.27315,-1.6092 2.27315,-1.6092 z m 6.12133,16.18278 c 1.5,1.3 3.17008,1.54183 5.07008,1.04183 0.8,-0.2 1.79922,-0.79922 2.69922,-0.19922 0.4,0.8 -0.0992,1.2 -0.69922,1.5 -1.4,0.7 -3.91906,0.84234 -5.72247,0.2167 -1.85303,-0.64286 -5.09585,-2.56393 -4.4787,-3.81631 0.48459,-0.98338 2.21401,0.48964 3.13109,1.257 z m 22.86891,7.243 c -6.79998,1.3 -13.20041,2.09883 -19.90039,0.29883 -0.6,3.1 -0.89961,6 -1.09961,9 3,1 5.90117,1.1 9.20117,1.5 3.6,-3.1 7.29844,-6.19883 10.89844,-9.29883 0.3,-0.3 0.40039,-0.7 0.90039,-1.5 z M 176.03672,426.4125 c -1.82638,0.27762 -4.69364,0.50076 -5.23633,1.08789 -0.70181,0.75928 0.19961,1.50039 1.09961,2.90039 -1,2 -0.50078,3.79961 1.19922,5.09961 -1.03485,3.49805 0.67236,6.08684 1.70117,6.19922 0.78067,0.0853 7.91113,-5.39625 7.39539,-6.65221 -0.64332,-1.56666 -6.2621,-0.1363 -6.2621,-0.1363 0,0 2.92331,-0.90051 4.2671,-1.61188 1.33198,-0.70512 4.02945,-1.12913 3.69922,-2.59961 -0.23127,-1.0298 -2.91544,-0.65585 -4.40039,-0.75182 -1.63507,-0.10568 -4.91149,0.19722 -4.91149,0.19722 0,0 2.27409,-0.76953 3.44535,-1.01984 1.35223,-0.28899 3.77955,-0.64159 3.46614,-1.92559 -0.33299,-1.36421 -3.64402,-1.06356 -5.46289,-0.78708 z m 114.1914,23.76953 c -2.03992,0.0277 -4.83708,0.009 -5.02734,0.81836 -0.26785,1.13894 2.16528,1.11084 3.16528,1.51084 0.8,0.4 1.62154,0.92219 2.42154,1.32219 0.7,0.4 1.31162,0.4658 0.81162,1.4658 -0.5,-0.1 -1.09922,-0.0988 -1.69922,-0.29883 -2.24384,-0.5234 -5.91099,-2.44019 -6.19922,-1.5 -0.39308,1.28221 1.87737,2.18264 3,2.79883 1.62956,0.89443 2.49922,0.90039 3.19922,2.40039 -0.5,0.2 -0.8,0.50039 -1,0.40039 -1.7,-0.5 -5.35895,-2.88281 -6.05273,-1.88281 -0.72699,1.04784 2.81426,4.97071 4.65234,6.58203 0.53763,0.4713 1.48805,-0.34449 2.10742,-0.76172 0.51468,-0.34671 0.98909,-0.81903 1.24414,-1.38477 0.29681,-0.65833 0.14805,-1.55234 0.24805,-2.15234 2.2,-0.3 2.70039,-1.80039 2.90039,-3.40039 0.6,-0.5 1.458,-0.78416 1.70117,-1.5 0.70337,-2.0706 -0.50421,-2.89103 -1.5573,-3.7329 -1.0349,-0.82732 -2.32874,-0.7066 -3.91536,-0.68507 z"
   style="display:inline"
   inkscape:label="SKIN COLOR" /><path
   id="path16"
   class="st5"
   d="m 318.61094,273.9125 c -4.68359,-0.0332 -9.38673,0.41211 -14.01172,1.28711 -6.39999,1.1 -12.44016,3.30353 -18,6.41071 -1.4602,0.81605 -2.81123,2.04412 -3.91123,3.14412 -1.2,1.2 -1.47249,2.79401 -0.88786,4.04426 0.39798,0.85109 1.63221,1.6608 2.50026,1.3013 0.6137,-0.25416 0.39961,-1.10039 0.59961,-1.90039 0.8,0.5 1.4031,1.416 2.30078,1.40039 1.39596,-0.0243 2.3,-1.50078 3.5,-2.30078 0.16364,2.49329 1.62846,5.38346 3.16476,7.35509 0.9106,1.15972 2.66892,3.11344 3.56892,2.61344 -3.3,-4.9 -4.40052,-6.73918 -1.63407,-11.86697 0.7,0.8 -0.1258,3.18887 0.1547,4.74699 0.26005,1.4445 0.68195,2.89468 1.40039,4.17455 1.32453,1.90037 2.74029,3.79796 4.64413,4.67807 0.5,-2.3 0.65972,-4.32344 0.85561,-6.5 0.21238,-2.3598 -0.15774,-4.85315 0.34557,-7.09961 0.6,1.3 0.99844,2.1 1.39844,3 1.4,3.1 2.5,6.29883 4,9.29883 1.3,2.7 2.10156,5.5 2.10156,8.5 0,3.5 -0.12453,4.03017 1.57547,7.03017 0.2,0.3 2.02453,3.16983 2.42453,3.46983 0.9,-1.6 -0.40039,-4.19922 -0.40039,-4.19922 2.12532,0.87013 2.8003,1.67401 4.20791,2.49837 1.28595,0.75312 3.30198,1.96934 3.87133,2.23616 0.18993,-1.11771 -2.57631,-3.00722 -3.0684,-3.77905 -1.4,-1.6 -3.11084,-3.25587 -4.51084,-4.85587 -0.8,-0.9 -1,-1.89961 -1,-3.09961 0.1,-2.6 0.0992,-5.30039 0.19922,-7.90039 0.1,-0.5 0.10117,-1.00039 0.20117,-1.90039 1.2,1 2.1,1.7 3,2.5 0.1,-1 -1.11618,-2.65125 -1.74647,-4.18106 -0.78444,-1.90397 -1.54365,-5.06225 0.18917,-6.17481 1.05178,-0.67531 2.55574,0.75548 3.45574,1.45548 3.3,2.5 6.50078,5.10117 9.80078,7.70117 1.8,1.4 3.59961,2.89961 5.59961,4.09961 6.79999,4 14.19962,6.1 22.09961,6.5 2.6,0.1 5.20078,-0.39922 7.80078,-0.69922 0.4,0 0.69922,-0.3 1.19922,-0.5 -0.3,-0.2 -0.4,-0.40039 -0.5,-0.40039 -0.4,-0.1 -0.89844,-0.0996 -1.39844,-0.0996 -4.09999,0 -8.20078,-0.70156 -12.30078,-1.60156 -9.99999,-2.3 -17.62747,-6.6957 -23.73053,-13.43127 -1.97482,-2.1795 -4.09572,-5.74789 -3.57025,-8.06873 1,1.1 2.61792,4.15898 4.34685,5.87528 4.24151,4.21051 9.17374,7.82996 14.49134,10.55794 1.5808,0.81097 4.2622,1.66834 5.0622,1.66834 -0.5,-0.6 -3.33664,-3.17852 -5.06585,-4.70041 -3.75629,-3.11435 -6.29402,-4.94867 -9.4232,-7.93203 -1.11118,-1.20815 -3.21528,-3.68194 -3.01095,-5.96912 2.21639,2.70428 3.96106,4.0472 5.80078,5.60156 5.2,4.3 10.6004,8.49922 15.90039,12.69922 3.4,2.6 3.39961,2.60078 7.59961,2.80078 0.4,0.1 0.90039,0.0996 1.40039,0.0996 2.8,0.2 5.59844,0.3 8.39844,0.5 0.6,0 1.10117,0.30039 1.70117,0.40039 0.2,1.5 -0.80117,2.1 -1.70117,2.5 -1.8,0.8 -3.6,1.69922 -5.5,2.19922 -2.4,0.6 -6.55566,0.986 -6.55566,0.986 0,0 2.07482,4.91568 1.90769,9.96913 -0.14272,4.31544 -0.40207,8.39562 -1.70711,12.33651 -1.41155,4.26249 -6.48253,11.80797 -6.48253,11.80797 0,0 3.03813,-1.55678 4.13813,-1.75678 1,-0.2 2.41175,0.0244 2.83251,0.92401 0.43086,0.9212 -0.43303,2.03277 -1.13303,2.83277 -2.6,2.8 -5.29883,5.6 -7.79883,8.5 -6.70025,7.88358 -9.62295,9.94612 -17.20117,23.40039 -1.4,-0.1 -2.59376,-0.46577 -3.89844,-0.40039 -1.32558,0.0664 -2.18561,0.31556 -3.90039,0.80078 0.9,0.9 1.59883,1.70039 2.29883,2.40039 1.6,1.7 2.90117,3.6 3.20117,6 0.2,1.4 0.19883,2.69961 0.29883,4.09961 0,0.8 0.10117,1.49883 0.20117,2.29883 1.3,-2.4 1.43728,-4.29921 1.97735,-6.49788 0.26709,-1.08737 0.22359,-2.25463 0.62226,-3.30095 1.4961,-3.92658 3.5,-7.70078 6.5,-10.80078 4.7,-4.9 9.6004,-9.79922 14.40039,-14.69922 0.7,-0.7 1.39922,-1.30039 2.19922,-1.90039 0.3,-0.3 0.8,-0.3 1.5,-0.5 -0.4,1.6 -1.49883,2.40078 -2.29883,3.30078 -4.19999,4.5 -8.50117,8.89844 -12.70117,13.39844 -1.7,1.8 -3.29883,3.60156 -4.79883,5.60156 -1,1.4 -1.9,2.99961 -2.5,4.59961 -1.2,3.1 0.38929,8.28994 2.58929,10.48994 0.3,-2.2 0.20993,-5.19033 0.60993,-7.39033 1.1,-5 3.40039,-9.49922 6.90039,-13.19922 3.8,-3.99999 7.60001,-7.90078 12,-11.30078 0.6,-0.5 1.19883,-0.99961 2.29883,-0.59961 -0.4,0.6 -0.6,1.00039 -1,1.40039 -3.2,3.2 -6.49883,6.3 -9.79883,9.5 -0.3,0.3 -0.50078,0.7 -0.80078,1 1.1,0 2.00078,-0.30117 2.80078,-0.70117 3.1,-1.6 6.09922,-3.09922 9.19922,-4.69922 8.69999,-4.59999 15.30118,-11.20001 19.70117,-20 4.3,-8.69999 5.59922,-18.00001 4.69922,-27.5 -1,-10.69999 -5.5004,-19.79962 -13.40039,-27.09961 -4.9,-4.59999 -10.90001,-7.50117 -17,-10.20117 -0.5,-0.2 -2.31843,-0.99135 -2.31843,-0.99135 0,0 -2.30523,3.91897 -3.49865,3.18887 -1.20899,-0.73963 0.85008,-4.16604 0.85008,-4.16604 0,0 -4.83222,-1.83148 -7.73222,-2.53148 -4.79999,-1.2 -9.50079,-2.49922 -14.30078,-3.19922 -2.775,-0.375 -5.57852,-0.56797 -8.38867,-0.58789 z m -51.31055,81.48828 c -3.1,0.9 -4.49964,1.35383 -6.82283,1.4541 -1.92065,0.0829 -5.12324,-0.8117 -5.72324,-0.7117 2.9,4 5.93694,5.30943 9.66562,6.00942 1.97923,0.37157 3.63841,-0.20078 5.93823,-1.11191 -0.2,-0.4 -0.65817,-1.2403 -0.95817,-1.5403 -3.79844,0.8833 -6.4737,0.37965 -8.63474,-0.74818 2.86661,-0.0501 4.90596,-0.19368 7.43552,-1.95299 -0.3,-0.5 -0.60039,-0.99844 -0.90039,-1.39844 z"
   style="display:inline"
   inkscape:label="YELLOW" /><path
   id="path186"
   class="st7"
   d="m 289.70078,325.6 c -1.0007,-0.37017 -2.18271,0.54768 -2.91396,1.32466 -2.09812,2.22935 -3.68721,5.57573 -3.28721,8.57573 0.2,1.3 0.59961,2.59922 2.09961,3.19922 1.5,0.6 2.90117,0.30078 4.20117,-0.69922 0.6,-0.5 1.1,-1.10078 1.5,-1.80078 0.9,-1.5 1.19961,-3.19883 1.09961,-4.79883 -0.2,-2.1 -0.69901,-5.06087 -2.69922,-5.80078 z m 27.29883,9.09961 c -5.3,3.3 -7.29922,9.39961 -6.69922,14.59961 0.1,1.3 1.45521,2.4316 2.69922,2.70117 1.11385,0.24136 2.20117,-0.60117 3.20117,-1.20117 4.9,-3.2 7.29961,-7.70001 7.09961,-13.5 0,-1.4 -0.69691,-2.93963 -1.90039,-3.5 -1.35727,-0.63197 -3.3074,0.25063 -4.40039,0.90039 z"
   style="display:inline"
   inkscape:label="BLUE" /><path
   id="path656"
   style="display:inline;fill:#f39dac;fill-opacity:1"
   d="m 277.80039,389.29922 c 0.7,0.5 1.29883,1.00039 1.79883,1.40039 1.87807,-0.28936 2.46658,-0.5987 4.80078,0 -1.2,0.5 -2.20078,1 -3.30078,1.5 0.9,1 1.60078,1.80117 2.30078,2.70117 0.7,0.9 1.39922,1.89844 2.19922,2.89844 1.6,-1 3.10039,-1.79844 4.90039,-2.89844 0.35452,2.49099 0.48737,5.14121 0.90039,7.39844 0.4,1.5 1.26053,3.24402 2.69922,3.40039 1.15428,0.12546 2.20117,-1.09922 2.70117,-2.19922 1.01322,-2.25132 1.74802,-4.52672 2.5,-6.59961 2.6443,2.56158 5.2717,4.29584 8.79883,3.89844 1.6,-0.2 3.20117,-0.4 4.20117,-2 1.21035,-2.58916 -1.2266,-4.63744 -1.80078,-6.39844 2.31718,0.19536 5.00117,1.05617 6.40921,-0.56144 0.96368,-1.10711 -1.06661,-3.0761 -2.32937,-3.93916 -1.59435,-1.08968 -2.82032,-1.68292 -4.96063,-2.99274 0,0 -5.14089,4.43141 -7.21882,6.39174 -2.33127,2.19933 -2.53295,2.59293 -5.69922,1.90039 -2.79628,-0.61162 -5.97424,-1.00215 -8.30078,-2.19922 0.1,-1.2 0.0992,-2.40117 0.19922,-3.70117 0,-1.3 0.14609,-2.6614 0.19599,-4.30765 -6.07026,0.50412 -8.2177,2.60144 -10.99482,6.30769 z m 11.35665,8.38955 c -0.7,0.3 -2.61879,1.71569 -2.61879,1.71569 0,0 0.64466,1.60111 1.24466,2.60111 0.8,1.2 1.51631,2.49365 2.31631,3.79365 5.29998,9.29998 8.60039,19.20158 7.90039,30.10156 0,0.9 -0.0228,2.84445 -0.0228,2.84445 1.81761,-0.92509 3.08041,-1.59383 4.76518,-1.74484 1.27003,-0.11383 2.67431,0.001 3.76876,0.65555 0.59765,0.35728 0.98962,0.94328 1.28962,1.64328 -0.8,0 -2.81975,-0.62344 -4.22459,-0.44586 -1.63794,0.20705 -2.83196,0.84082 -4.64127,1.72917 -0.9229,0.45313 -1.57706,1.3975 -2.03453,2.31826 -0.66588,1.34025 -1.60039,2.69844 -0.90039,4.39844 0.2,0.2 0.50078,0.4 0.80078,0.5 2.7,1 4.39961,3.10156 5.59961,5.60156 0.9,1.7 0.9,3.49961 -0.5,5.09961 -0.3,0.3 -1.54504,0.99889 -1.54504,0.99889 0,0 1.3622,1.78747 1.44459,2.84907 0.0761,0.98084 -0.9126,2.80674 -0.9126,2.80674 0.8,-0.3 2.41227,-0.35509 2.71227,-0.55509 1.9,-1.6 3.9,-3.10039 5.5,-4.90039 3.4,-4 5.10156,-8.59883 5.60156,-13.79883 1,-11.69998 -0.40119,-22.90119 -5.20117,-33.70117 -1.1,-2.3 -1.60039,-4.89883 -2.40039,-7.29883 -0.2,-0.7 -0.4,-1.30078 -0.5,-1.80078 -2.3,-0.8 -4.4,-1.49922 -6.5,-2.19922 -0.9,1.4 -1.5,2.89961 -2.5,4.09961 -1,1.3 -2.09883,2.39961 -3.79883,2.59961 -1.6,-0.2 -2.40039,-1.20039 -2.90039,-2.40039 -1.08436,-2.47325 -1.60846,-3.91422 -1.74296,-7.51085 z m 6.95471,51.75406 c 2.42355,7.34103 -1.21106,9.2398 -3.06082,11.96524 -2.77912,4.09475 -5.26132,5.22361 -8.5179,9.87 0.9,1 1.85456,2.00474 3.10013,2.10992 1.20576,0.10182 2.45831,-0.64197 3.30104,-1.51031 0.98209,-1.01195 1.26499,-2.53969 1.64413,-3.89792 0.26083,-0.93442 0.32258,-1.48942 0.42128,-2.87976 0.8,0.6 1.9753,1.00958 3.0342,0.95496 C 297.25458,465.992 298.4,465.8 299.4,464.6 c 1.2,-1.5 0.99961,-2.89922 -0.40039,-4.19922 -0.5,-0.5 -0.99922,-0.9 -1.69922,-1.5 1.5,-0.8 3.21934,-0.76705 3.69922,-2.10156 0.65152,-1.8118 -0.86724,-3.8829 -2.05509,-5.39818 -0.7082,-0.90341 -3.09775,-2.76083 -2.83277,-1.95821 z m 5.8195,17.03608 c -2.86699,0.22968 -7.4197,1.1523 -7.4197,1.1523 -0.41906,1.86088 -0.86893,3.34852 -1.72011,5.0342 -1.17741,2.33174 -5.59183,3.13498 -7.79183,0.83498 -0.4,-0.5 -0.99922,-0.80039 -1.69922,-1.40039 -1.4,1.4 -2.60078,2.7 -3.80078,4 -2.3,2.5 -4.89922,4.6 -7.69922,6.5 -6.79998,4.7 -14.0008,8.3 -22.30078,9.5 -4,0.6 -7.90041,1 -11.90039,1.5 -0.8,0.1 -1.59961,0.20078 -2.59961,0.30078 0.5,1.2 0.80117,2.09844 1.20117,2.89844 1.2,2.6 2.49922,5.20078 3.69922,7.80078 4.8,10.79998 10.10002,21.40041 16.5,31.40039 3.9,5.99998 7.90039,11.79924 11.90039,17.69922 1.9,2.9 3.79961,5.80117 4.59961,9.20117 0.2,1.1 0.3453,1.88721 0.3453,2.98721 0,0.8 -0.26684,2.16892 -1.26684,2.36892 -0.40967,-2.4684 0.12076,-3.45769 -0.87924,-4.95769 -4.36672,1.00645 -5.77487,1.46481 -9.12783,2.6987 -1.62026,0.59626 -4.2461,1.48406 -4.07139,3.20169 0.11314,1.11229 1.8,1.5 3,1.5 1.91929,0.19388 6.80078,-0.5 6.80078,-0.5 0,0 -2.8627,2.89886 -4.30078,3.90039 -0.6,0.4 -1.29922,0.99961 -1.69922,1.59961 -1,1.6 -0.10117,3.30039 1.79883,3.40039 1.2,0.1 2.30078,-0.29961 3.30078,-1.09961 1.68331,-1.15935 4.59961,-2.70117 4.59961,-2.70117 0,0 -0.95238,1.96306 -2.07872,3.13576 -1.32641,1.38101 -2.89903,3.88891 -1.79831,5.45574 0.76227,1.08506 2.07664,1.30967 3.97664,0.10967 1.81144,-1.39253 3.67099,-3.14626 5.0231,-4.4889 0.6,-0.6 2.57651,-1.91149 2.57651,-1.91149 0,0 0.40117,1.90039 0.70117,2.90039 0.7,2.1 2.3831,2.26505 3.85366,2.16749 1.47605,-0.0979 3.04673,-1.56749 3.54673,-2.66749 0.5,-1.4 0.41227,-2.43329 0.5,-3.90039 1.8,0.9 3.29961,1.99961 5.09961,2.59961 1.8,0.6 4.87784,1.03782 5.59961,-0.69922 0.50143,-1.20677 -1.40039,-1.89961 -2.40039,-3.09961 2.41137,0.6997 4.39962,0.68332 6.40039,0.89844 1.3,0.2 2.09961,-0.29883 2.59961,-1.29883 0.5,-1 0.3,-2.10039 -0.5,-2.90039 -1.83325,-1.47644 -4.34296,-2.32259 -5.90039,-3.30078 0,0 4.66266,-1.6734 4.65639,-3.64439 -0.007,-2.34268 -5.95522,-2.6671 -9.45522,-2.7671 -0.34387,2.5342 -0.12338,4.9013 -1.52336,6.8013 -1.4,-1.2 -0.62287,-3.4768 -0.51058,-5.19137 0.49415,-7.54553 1.53355,-15.29729 3.13355,-23.49727 2,-10.89998 4.90078,-21.70041 7.80078,-32.40039 3.5,-12.89998 3.49844,-12.9008 3.39844,-24.80078 0,-4.8 -0.9,-9.40002 -2,-14 -0.2,-0.8 -0.59844,-1.49883 -0.89844,-2.29883 -0.4375,-0.05 -0.85996,-0.0543 -1.26953,-0.0215 z"
   inkscape:label="PINK" />
</g>
<g
   inkscape:groupmode="layer"
   id="layer1"
   inkscape:label="body holes"
   style="display:inline;fill:#000000;fill-opacity:1;stroke:#ffffff;stroke-width:1.7;stroke-dasharray:none;stroke-opacity:1"><circle
     style="fill:#000000;fill-opacity:1;stroke:#ffffff;stroke-width:3;stroke-dasharray:none;stroke-opacity:1"
     id="path9-2"
     cx="1209.92"
     cy="1072.92"
     r="13.120737" /><circle
     style="fill:#000000;fill-opacity:1;stroke:#ffffff;stroke-width:3;stroke-dasharray:none;stroke-opacity:1"
     id="path9-6"
     cx="982.91998"
     cy="987.91998"
     r="13.120737" /><circle
     style="fill:#000000;fill-opacity:1;stroke:#ffffff;stroke-width:3;stroke-dasharray:none;stroke-opacity:1"
     id="path9-7"
     cx="1811.92"
     cy="820.91998"
     r="13.120737" /><circle
     style="fill:#000000;fill-opacity:1;stroke:#ffffff;stroke-width:3;stroke-dasharray:none;stroke-opacity:1"
     id="path9-4"
     cx="1774.92"
     cy="698.91998"
     r="13.120737" /><circle
     style="fill:#000000;fill-opacity:1;stroke:#ffffff;stroke-width:3;stroke-dasharray:none;stroke-opacity:1"
     id="path9-71"
     cx="1161.2781"
     cy="401.30267"
     r="13.120737" /><circle
     style="fill:#000000;fill-opacity:1;stroke:#ffffff;stroke-width:3;stroke-dasharray:none;stroke-opacity:1"
     id="path9-1"
     cx="1033.92"
     cy="1141.92"
     r="13.120737" /><circle
     style="fill:#000000;fill-opacity:1;stroke:#ffffff;stroke-width:3;stroke-dasharray:none;stroke-opacity:1"
     id="path9-5"
     cx="1009.92"
     cy="588.91998"
     r="13.120737" /><circle
     style="fill:#000000;fill-opacity:1;stroke:#ffffff;stroke-width:3;stroke-dasharray:none;stroke-opacity:1"
     id="path9-5-8"
     cx="971.91998"
     cy="54.920002"
     r="13.120737" /><circle
     style="fill:#000000;fill-opacity:1;stroke:#ffffff;stroke-width:3;stroke-dasharray:none;stroke-opacity:1"
     id="path9-5-3"
     cx="1107.92"
     cy="113.92001"
     r="13.120737" /><circle
     style="fill:#000000;fill-opacity:1;stroke:#ffffff;stroke-width:3;stroke-dasharray:none;stroke-opacity:1"
     id="path9-5-1"
     cx="1198.92"
     cy="100.92001"
     r="13.120737" /><circle
     style="fill:#000000;fill-opacity:1;stroke:#ffffff;stroke-width:3;stroke-dasharray:none;stroke-opacity:1"
     id="path9-5-7"
     cx="1303.92"
     cy="108.92001"
     r="13.120737" /><circle
     style="fill:#000000;fill-opacity:1;stroke:#ffffff;stroke-width:3;stroke-dasharray:none;stroke-opacity:1"
     id="path9-5-6"
     cx="1306.92"
     cy="308.92001"
     r="13.120737" /><circle
     style="fill:#000000;fill-opacity:1;stroke:#ffffff;stroke-width:3;stroke-dasharray:none;stroke-opacity:1"
     id="path9-5-80"
     cx="1590.92"
     cy="406.92001"
     r="13.120737" /><circle
     style="fill:#000000;fill-opacity:1;stroke:#ffffff;stroke-width:3;stroke-dasharray:none;stroke-opacity:1"
     id="path9-5-5"
     cx="1757.92"
     cy="234.92"
     r="13.120737" /><circle
     style="fill:#000000;fill-opacity:1;stroke:#ffffff;stroke-width:3;stroke-dasharray:none;stroke-opacity:1"
     id="path9-5-34"
     cx="1842.92"
     cy="284.92001"
     r="13.120737" /><circle
     style="fill:#000000;fill-opacity:1;stroke:#ffffff;stroke-width:3;stroke-dasharray:none;stroke-opacity:1"
     id="path9-5-0"
     cx="1910.92"
     cy="346.92001"
     r="13.120737" /><circle
     style="fill:#000000;fill-opacity:1;stroke:#ffffff;stroke-width:3;stroke-dasharray:none;stroke-opacity:1"
     id="path9-5-2"
     cx="1987.92"
     cy="448.92001"
     r="13.120737" /><circle
     style="fill:#000000;fill-opacity:1;stroke:#ffffff;stroke-width:3;stroke-dasharray:none;stroke-opacity:1"
     id="path9-5-39"
     cx="2068.9199"
     cy="535.91998"
     r="13.120737" /><circle
     style="fill:#000000;fill-opacity:1;stroke:#ffffff;stroke-width:3;stroke-dasharray:none;stroke-opacity:1"
     id="path9-9"
     cx="1202.5249"
     cy="548.33972"
     r="13.120737" /><circle
     style="fill:#000000;fill-opacity:1;stroke:#ffffff;stroke-width:3;stroke-dasharray:none;stroke-opacity:1"
     id="path9-48"
     cx="1393.8829"
     cy="580.50024"
     r="13.120737" /><circle
     style="fill:#000000;fill-opacity:1;stroke:#ffffff;stroke-width:3;stroke-dasharray:none;stroke-opacity:1"
     id="path9-52"
     cx="1568.9692"
     cy="672.52484"
     r="13.120737" /><circle
     style="fill:#000000;fill-opacity:1;stroke:#ffffff;stroke-width:3;stroke-dasharray:none;stroke-opacity:1"
     id="path9-11"
     cx="1683.8213"
     cy="816.40143"
     r="13.120737" /><circle
     style="fill:#000000;fill-opacity:1;stroke:#ffffff;stroke-width:3;stroke-dasharray:none;stroke-opacity:1"
     id="path9-60"
     cx="1696.2745"
     cy="982.25269"
     r="13.120737" /><circle
     style="fill:#000000;fill-opacity:1;stroke:#ffffff;stroke-width:3;stroke-dasharray:none;stroke-opacity:1"
     id="path9-94"
     cx="1621.2307"
     cy="1135.405"
     r="13.120737" /><circle
     style="fill:#000000;fill-opacity:1;stroke:#ffffff;stroke-width:3;stroke-dasharray:none;stroke-opacity:1"
     id="path9-78"
     cx="1075.92"
     cy="453.92001"
     r="13.120737" /><circle
     style="fill:#000000;fill-opacity:1;stroke:#ffffff;stroke-width:3;stroke-dasharray:none;stroke-opacity:1"
     id="path9-29"
     cx="1062.7269"
     cy="2193.0508"
     r="13.120737" /><circle
     style="fill:#000000;fill-opacity:1;stroke:#ffffff;stroke-width:3;stroke-dasharray:none;stroke-opacity:1"
     id="path9-30"
     cx="1040.5857"
     cy="2366.9534"
     r="13.120737" /><circle
     style="fill:#000000;fill-opacity:1;stroke:#ffffff;stroke-width:3;stroke-dasharray:none;stroke-opacity:1"
     id="path9-54"
     cx="1001.7001"
     cy="2537.5327"
     r="13.120737" /><circle
     style="fill:#000000;fill-opacity:1;stroke:#ffffff;stroke-width:3;stroke-dasharray:none;stroke-opacity:1"
     id="path9-45"
     cx="965.91998"
     cy="2726.1614"
     r="13.120737" /><circle
     style="fill:#000000;fill-opacity:1;stroke:#ffffff;stroke-width:3;stroke-dasharray:none;stroke-opacity:1"
     id="path9-13"
     cx="979.91998"
     cy="2929.9199"
     r="13.120737" /><circle
     style="fill:#000000;fill-opacity:1;stroke:#ffffff;stroke-width:3;stroke-dasharray:none;stroke-opacity:1"
     id="path9-73"
     cx="890.53735"
     cy="2932.9199"
     r="13.120737" /><circle
     style="fill:#000000;fill-opacity:1;stroke:#ffffff;stroke-width:3;stroke-dasharray:none;stroke-opacity:1"
     id="path9-187"
     cx="844.79297"
     cy="2724.2095"
     r="13.120737" /><circle
     style="fill:#000000;fill-opacity:1;stroke:#ffffff;stroke-width:3;stroke-dasharray:none;stroke-opacity:1"
     id="path9-567"
     cx="753.40668"
     cy="2560.1333"
     r="13.120737" /><circle
     style="fill:#000000;fill-opacity:1;stroke:#ffffff;stroke-width:3;stroke-dasharray:none;stroke-opacity:1"
     id="path9-12"
     cx="651.47198"
     cy="2388.2305"
     r="13.120737" /><circle
     style="fill:#000000;fill-opacity:1;stroke:#ffffff;stroke-width:3;stroke-dasharray:none;stroke-opacity:1"
     id="path9-719"
     cx="1090.7993"
     cy="1630.582"
     r="13.120737" /><circle
     style="fill:#000000;fill-opacity:1;stroke:#ffffff;stroke-width:3;stroke-dasharray:none;stroke-opacity:1"
     id="path9-59"
     cx="1122.9442"
     cy="1770.1754"
     r="13.120737" /><circle
     style="fill:#000000;fill-opacity:1;stroke:#ffffff;stroke-width:3;stroke-dasharray:none;stroke-opacity:1"
     id="path9-93"
     cx="1122.92"
     cy="1917.9199"
     r="13.120737"
     inkscape:label="path9-93" /><circle
     style="display:inline;fill:#000000;fill-opacity:1;stroke:#ffffff;stroke-width:3;stroke-dasharray:none;stroke-opacity:1"
     id="path9-719-0"
     cx="914.20013"
     cy="1217.6932"
     r="13.120737" /><circle
     style="display:inline;fill:#000000;fill-opacity:1;stroke:#ffffff;stroke-width:3;stroke-dasharray:none;stroke-opacity:1"
     id="path9-719-8"
     cx="968.54834"
     cy="1278.9447"
     r="13.120737" /><circle
     style="display:inline;fill:#000000;fill-opacity:1;stroke:#ffffff;stroke-width:3;stroke-dasharray:none;stroke-opacity:1"
     id="path9-719-7"
     cx="1075.0514"
     cy="1288.993"
     r="13.120737" /><circle
     style="display:inline;fill:#000000;fill-opacity:1;stroke:#ffffff;stroke-width:3;stroke-dasharray:none;stroke-opacity:1"
     id="path9-719-1"
     cx="808.18469"
     cy="2371.2754"
     r="13.120737" /><circle
     style="display:inline;fill:#000000;fill-opacity:1;stroke:#ffffff;stroke-width:3;stroke-dasharray:none;stroke-opacity:1"
     id="path9-719-06"
     cx="931.32178"
     cy="2315.4216"
     r="13.120737" /><circle
     style="display:inline;fill:#000000;fill-opacity:1;stroke:#ffffff;stroke-width:3;stroke-dasharray:none;stroke-opacity:1"
     id="path9-719-3"
     cx="872.23456"
     cy="2541.5676"
     r="13.120737" /><circle
     style="display:inline;fill:#000000;fill-opacity:1;stroke:#ffffff;stroke-width:3;stroke-dasharray:none;stroke-opacity:1"
     id="path9-719-85"
     cx="1038.6207"
     cy="2049.6208"
     r="13.120737" /><circle
     style="display:inline;fill:#000000;fill-opacity:1;stroke:#ffffff;stroke-width:3;stroke-dasharray:none;stroke-opacity:1"
     id="path9-719-79"
     cx="948.42761"
     cy="1436.7173"
     r="13.120737" /><circle
     style="display:inline;fill:#000000;fill-opacity:1;stroke:#ffffff;stroke-width:3;stroke-dasharray:none;stroke-opacity:1"
     id="path9-719-6"
     cx="1030.6207"
     cy="1526.4276"
     r="13.120737" /><circle
     style="display:inline;fill:#000000;fill-opacity:1;stroke:#ffffff;stroke-width:3;stroke-dasharray:none;stroke-opacity:1"
     id="path9-719-67"
     cx="1139.6207"
     cy="1471.6207"
     r="13.120737" /><circle
     style="display:inline;fill:#000000;fill-opacity:1;stroke:#ffffff;stroke-width:3;stroke-dasharray:none;stroke-opacity:1"
     id="path9-719-4"
     cx="1604.0413"
     cy="1010.7173"
     r="13.120737" /><circle
     style="display:inline;fill:#000000;fill-opacity:1;stroke:#ffffff;stroke-width:3;stroke-dasharray:none;stroke-opacity:1"
     id="path9-719-08"
     cx="1155.7173"
     cy="624.77954"
     r="13.120737" /><circle
     style="display:inline;fill:#000000;fill-opacity:1;stroke:#ffffff;stroke-width:3;stroke-dasharray:none;stroke-opacity:1"
     id="path9-719-48"
     cx="1616.3311"
     cy="882.62073"
     r="13.120737" /></g><g
   id="g13"
   transform="matrix(0.97749526,-0.12276424,0.0837448,0.99237854,-1497.2669,550.50118)"
   inkscape:label="bulb holes"
   style="display:inline"><g
     inkscape:groupmode="layer"
     id="layer3"
     inkscape:label="bulb"><circle
       cx="1955.8649"
       cy="1549.5535"
       r="13.92"
       fill="none"
       stroke="#000000"
       stroke-width="1.88976"
       id="hole_1" /><circle
       cx="2051.865"
       cy="1549.5535"
       r="13.92"
       fill="none"
       stroke="#000000"
       stroke-width="1.88976"
       id="hole_2" /><circle
       cx="1985.5304"
       cy="1640.8555"
       r="13.92"
       fill="none"
       stroke="#000000"
       stroke-width="1.88976"
       id="hole_3" /><circle
       cx="1878.1993"
       cy="1605.9817"
       r="13.92"
       fill="none"
       stroke="#000000"
       stroke-width="1.88976"
       id="hole_4" /><circle
       cx="1878.1993"
       cy="1493.125"
       r="13.92"
       fill="none"
       stroke="#000000"
       stroke-width="1.88976"
       id="hole_5" /><circle
       cx="1985.5304"
       cy="1458.2513"
       r="13.92"
       fill="none"
       stroke="#000000"
       stroke-width="1.88976"
       id="hole_6" /><circle
       cx="2138.469"
       cy="1608.8844"
       r="13.92"
       fill="none"
       stroke="#000000"
       stroke-width="1.88976"
       id="hole_7" /><circle
       cx="2068.7178"
       cy="1704.8844"
       r="13.92"
       fill="none"
       stroke="#000000"
       stroke-width="1.88976"
       id="hole_8" /><circle
       cx="1955.8649"
       cy="1741.5533"
       r="13.92"
       fill="none"
       stroke="#000000"
       stroke-width="1.88976"
       id="hole_9" /><circle
       cx="1843.012"
       cy="1704.8844"
       r="13.92"
       fill="none"
       stroke="#000000"
       stroke-width="1.88976"
       id="hole_10" /><circle
       cx="1773.2609"
       cy="1608.8844"
       r="13.92"
       fill="none"
       stroke="#000000"
       stroke-width="1.88976"
       id="hole_11" /><circle
       cx="1773.2609"
       cy="1490.2223"
       r="13.92"
       fill="none"
       stroke="#000000"
       stroke-width="1.88976"
       id="hole_12" /><circle
       cx="1843.012"
       cy="1394.2224"
       r="13.92"
       fill="none"
       stroke="#000000"
       stroke-width="1.88976"
       id="hole_13" /><circle
       cx="1955.8649"
       cy="1357.5533"
       r="13.92"
       fill="none"
       stroke="#000000"
       stroke-width="1.88976"
       id="hole_14" /><circle
       cx="2068.7178"
       cy="1394.2224"
       r="13.92"
       fill="none"
       stroke="#000000"
       stroke-width="1.88976"
       id="hole_15" /><circle
       cx="2138.469"
       cy="1490.2223"
       r="13.92"
       fill="none"
       stroke="#000000"
       stroke-width="1.88976"
       id="hole_16" /><circle
       cx="2237.572"
       cy="1609.4324"
       r="13.92"
       fill="none"
       stroke="#000000"
       stroke-width="1.88976"
       id="hole_17" /><circle
       cx="2188.8613"
       cy="1718.8347"
       r="13.92"
       fill="none"
       stroke="#000000"
       stroke-width="1.88976"
       id="hole_18" /><circle
       cx="2099.865"
       cy="1798.9683"
       r="13.92"
       fill="none"
       stroke="#000000"
       stroke-width="1.88976"
       id="hole_19" /><circle
       cx="1985.9689"
       cy="1835.9773"
       r="13.92"
       fill="none"
       stroke="#000000"
       stroke-width="1.88976"
       id="hole_20" /><circle
       cx="1866.8684"
       cy="1823.4595"
       r="13.92"
       fill="none"
       stroke="#000000"
       stroke-width="1.88976"
       id="hole_21" /><circle
       cx="1763.1544"
       cy="1763.5804"
       r="13.92"
       fill="none"
       stroke="#000000"
       stroke-width="1.88976"
       id="hole_22" /><circle
       cx="1692.7644"
       cy="1666.6923"
       r="13.92"
       fill="none"
       stroke="#000000"
       stroke-width="1.88976"
       id="hole_23" /><circle
       cx="1667.8649"
       cy="1549.5535"
       r="13.92"
       fill="none"
       stroke="#000000"
       stroke-width="1.88976"
       id="hole_24" /><circle
       cx="1692.7644"
       cy="1432.4144"
       r="13.92"
       fill="none"
       stroke="#000000"
       stroke-width="1.88976"
       id="hole_25" /><circle
       cx="1763.1544"
       cy="1335.5262"
       r="13.92"
       fill="none"
       stroke="#000000"
       stroke-width="1.88976"
       id="hole_26" /><circle
       cx="1866.8684"
       cy="1275.6472"
       r="13.92"
       fill="none"
       stroke="#000000"
       stroke-width="1.88976"
       id="hole_27" /><circle
       cx="1985.9689"
       cy="1263.1294"
       r="13.92"
       fill="none"
       stroke="#000000"
       stroke-width="1.88976"
       id="hole_28" /><circle
       cx="2099.865"
       cy="1300.1385"
       r="13.92"
       fill="none"
       stroke="#000000"
       stroke-width="1.88976"
       id="hole_29" /><circle
       cx="2188.8613"
       cy="1380.2721"
       r="13.92"
       fill="none"
       stroke="#000000"
       stroke-width="1.88976"
       id="hole_30" /><circle
       cx="2237.572"
       cy="1489.6743"
       r="13.92"
       fill="none"
       stroke="#000000"
       stroke-width="1.88976"
       id="hole_31" /><circle
       cx="2334.6265"
       cy="1612.7584"
       r="13.92"
       fill="none"
       stroke="#000000"
       stroke-width="1.88976"
       id="hole_32" /><circle
       cx="2293.5847"
       cy="1732.3162"
       r="13.92"
       fill="none"
       stroke="#000000"
       stroke-width="1.88976"
       id="hole_33" /><circle
       cx="2215.9419"
       cy="1832.0731"
       r="13.92"
       fill="none"
       stroke="#000000"
       stroke-width="1.88976"
       id="hole_34" /><circle
       cx="2110.115"
       cy="1901.212"
       r="13.92"
       fill="none"
       stroke="#000000"
       stroke-width="1.88976"
       id="hole_35" /><circle
       cx="1987.5751"
       cy="1932.2419"
       r="13.92"
       fill="none"
       stroke="#000000"
       stroke-width="1.88976"
       id="hole_36" /><circle
       cx="1861.5997"
       cy="1921.8029"
       r="13.92"
       fill="none"
       stroke="#000000"
       stroke-width="1.88976"
       id="hole_37" /><circle
       cx="1745.8365"
       cy="1871.0249"
       r="13.92"
       fill="none"
       stroke="#000000"
       stroke-width="1.88976"
       id="hole_38" /><circle
       cx="1652.8337"
       cy="1785.411"
       r="13.92"
       fill="none"
       stroke="#000000"
       stroke-width="1.88976"
       id="hole_39" /><circle
       cx="1592.6711"
       cy="1674.2362"
       r="13.92"
       fill="none"
       stroke="#000000"
       stroke-width="1.88976"
       id="hole_40" /><circle
       cx="1571.8649"
       cy="1549.5535"
       r="13.92"
       fill="none"
       stroke="#000000"
       stroke-width="1.88976"
       id="hole_41" /><circle
       cx="1592.6711"
       cy="1424.8705"
       r="13.92"
       fill="none"
       stroke="#000000"
       stroke-width="1.88976"
       id="hole_42" /><circle
       cx="1652.8337"
       cy="1313.6958"
       r="13.92"
       fill="none"
       stroke="#000000"
       stroke-width="1.88976"
       id="hole_43" /><circle
       cx="1745.8365"
       cy="1228.0819"
       r="13.92"
       fill="none"
       stroke="#000000"
       stroke-width="1.88976"
       id="hole_44" /><circle
       cx="1861.5997"
       cy="1177.304"
       r="13.92"
       fill="none"
       stroke="#000000"
       stroke-width="1.88976"
       id="hole_45" /><circle
       cx="1987.5751"
       cy="1166.8649"
       r="13.92"
       fill="none"
       stroke="#000000"
       stroke-width="1.88976"
       id="hole_46" /><circle
       cx="2110.115"
       cy="1197.8948"
       r="13.92"
       fill="none"
       stroke="#000000"
       stroke-width="1.88976"
       id="hole_47" /><circle
       cx="2215.9419"
       cy="1267.0337"
       r="13.92"
       fill="none"
       stroke="#000000"
       stroke-width="1.88976"
       id="hole_48" /><circle
       cx="2293.5847"
       cy="1366.7905"
       r="13.92"
       fill="none"
       stroke="#000000"
       stroke-width="1.88976"
       id="hole_49" /><circle
       cx="2334.6265"
       cy="1486.3484"
       r="13.92"
       fill="none"
       stroke="#000000"
       stroke-width="1.88976"
       id="hole_50" /></g></g></svg>
