<?xml version="1.0" encoding="UTF-8" standalone="no"?>
<svg
   width="20in"
   height="14.916666666666666in"
   viewBox="0 0 1920 1432"
   version="1.1"
   id="svg13"
   sodipodi:docname="grinch_no_leds.svg"
   inkscape:version="1.4.2 (ebf0e940, 2025-05-08)"
   xmlns:inkscape="http://www.inkscape.org/namespaces/inkscape"
   xmlns:sodipodi="http://sodipodi.sourceforge.net/DTD/sodipodi-0.dtd"
   xmlns="http://www.w3.org/2000/svg"
   xmlns:svg="http://www.w3.org/2000/svg"
   xmlns:gf="http://glowforge.com/namespaces/gf">
  <defs
     id="defs13" />
  <sodipodi:namedview
     id="namedview13"
     pagecolor="#ffffff"
     bordercolor="#000000"
     borderopacity="0.25"
     inkscape:showpageshadow="2"
     inkscape:pageopacity="0.0"
     inkscape:pagecheckerboard="0"
     inkscape:deskcolor="#d1d1d1"
     inkscape:document-units="in"
     inkscape:zoom="1.7333333"
     inkscape:cx="941.53846"
     inkscape:cy="438.75"
     inkscape:window-width="2288"
     inkscape:window-height="942"
     inkscape:window-x="0"
     inkscape:window-y="25"
     inkscape:window-maximized="0"
     inkscape:current-layer="svg13" />
  <gf:laserdefs>
    <gf:laserdef
       class="l68e3ce98-8dc4-412e-b601-89b60a99cc35"
       order="0"
       type="none"
       power="NaN"
       focal_offset="8.586500000000001"
       corner="NaN"
       materialid="UNKNOWN"
       settingid="none::NONE" />
    <gf:laserdef
       class="l5aa50d32-66c6-4799-90b0-8fd905465497"
       order="1"
       type="none"
       power="NaN"
       focal_offset="8.586500000000001"
       corner="NaN"
       materialid="UNKNOWN"
       settingid="none::NONE" />
    <gf:laserdef
       class="l5d63db71-b2fe-41a5-b18e-e7b9a2b29fdc"
       order="2"
       type="none"
       power="NaN"
       focal_offset="8.586500000000001"
       corner="NaN"
       materialid="UNKNOWN"
       settingid="none::NONE" />
    <gf:laserdef
       class="l509b0ef1-efa1-4843-8be8-45016f2820d7"
       order="3"
       type="none"
       power="NaN"
       focal_offset="8.586500000000001"
       corner="NaN"
       materialid="UNKNOWN"
       settingid="none::NONE" />
    <gf:laserdef
       class="l1b900f44-0085-40f6-9d1b-fed16c382196"
       order="4"
       type="none"
       power="NaN"
       focal_offset="8.586500000000001"
       corner="NaN"
       materialid="UNKNOWN"
       settingid="none::NONE" />
    <gf:laserdef
       class="lb0697319-2783-4509-a414-59dbf53731e3"
       order="5"
       type="cut"
       power="35"
       speed="3837.5"
       passes="1"
       focal_offset="6.35"
       corner="17"
       materialid="UNKNOWN"
       settingid="cut::HEAT:5769962131554304::MANUAL_SETTING" />
  </gf:laserdefs>
  <path
     class="e lb0697319-2783-4509-a414-59dbf53731e3 lb0697319-2783-4509-a414-59dbf53731e3"
     id="e0"
     d="m 434.29321,363.04844 c 0.1868,4.62966 0.84967,9.55781 1.80363,14.59334 3.47473,18.34155 9.98023,35.81067 9.98023,35.81067 3.35924,12.14076 16.02515,42.857 21.74399,53.45309 1.86584,3.45711 4.44679,7.33024 5.19833,8.93579 1.49031,3.18378 1.49208,3.18454 16.58012,22.14556 22.7782,28.6252 42.82562,45.68861 92.05939,78.35109 13.70957,9.09515 15.15735,10.71591 18.48138,20.71796 3.2633,9.81927 3.32129,11.30026 0.61748,15.55096 -6.1737,9.70575 -7.79073,18.55637 -5.29885,28.99574 1.28536,5.38477 2.17481,13.17004 1.97881,17.29875 -0.61862,13.03125 8.62979,26.86128 23.06224,34.49467 11.45908,6.06078 31.99907,2.96772 40.92901,-6.16574 1.62317,-1.66015 6.95012,-2.74947 13.45823,-2.74947 17.51327,0 26.08285,-6.98019 26.15828,-21.31132 0.0256,-4.86357 1.25594,-9.3078 2.98401,-10.77463 3.8502,-3.26822 3.73711,-11.78584 -0.26423,-19.98947 -3.00497,-6.16099 -2.97357,-7.12913 0.49112,-15.57447 2.03195,-4.95296 4.57665,-8.89698 5.65499,-8.76538 1.07834,0.13158 2.91728,4.07603 4.08688,8.76538 4.83563,19.38774 22.43922,37.57022 36.37399,37.57022 4.2658,0 4.23323,-0.16386 -1.22921,-5.99538 -8.07848,-8.62427 -4.84824,-9.48883 5.43958,-1.45698 18.40563,14.36954 42.27935,14.11 57.27935,-0.62274 4.31338,-4.23651 13.57736,-10.42234 20.58658,-13.7444 21.4021,-10.14379 43.23796,-26.03791 57.49475,-41.8501 6.02033,-6.67716 9.16746,-8.17345 9.16746,-4.36216 0,1.18435 -4.50206,11.31737 -10.00609,22.51864 -8.75962,17.82684 -9.88485,21.48621 -9.01811,29.35117 1.08443,9.84012 6.5463,16.16195 13.96371,16.16195 2.72667,0 6.42463,2.89153 10.07501,7.87536 10.23024,13.96715 20.82859,16.35863 38.61419,8.71253 6.58263,-2.82988 7.71841,-2.84345 10.78437,-0.12047 1.88464,1.67383 6.89939,3.58841 11.14629,4.25345 8.82967,1.38267 18.76818,11.3872 33.19468,33.42251 15.1378,23.12163 32.6088,55.29066 32.6088,60.04184 0,4.75372 12.192,28.68464 18.1626,35.64911 3.5756,4.17079 11.2532,13.67275 17.0597,21.11746 5.8066,7.4447 11.1584,13.53585 11.8959,13.53585 0.7375,0 6.0904,4.51188 11.893,10.02558 12.5837,11.9573 21.5389,15.24282 46.4892,17.04906 l 18.2545,1.32186 -1.5882,-7.68148 c -2.3825,-11.51747 -1.8346,-66.95646 0.8989,-90.89994 5.5805,-48.88055 6.2992,-52.0734 11.9705,-53.28272 2.8316,-0.60381 6.4701,-1.9744 8.0876,-3.04322 1.6175,-1.06884 5.5323,-3.49467 8.6994,-5.3932 15.1631,-9.0895 17.7521,-15.9817 10.9079,-29.04275 -3.9659,-7.56794 -4.9053,-14.5739 -2.7313,-20.3684 2.238,-5.96517 7.5774,-3.26545 12.5334,6.33613 3.5306,6.83988 6.5478,9.97693 10.7844,11.21525 19.2077,5.6141 32.1725,18.4888 29.3692,29.16318 -5.6816,21.63415 -1.7445,44.04676 9.1875,52.31336 5.5453,4.19322 6.0528,4.24621 9.5581,1.00168 2.9724,-2.75131 3.4706,-5.14995 2.5302,-12.16699 -1.6457,-12.28035 2.7191,-13.55488 11.8298,-3.45447 l 6.9187,7.67267 4.3913,-4.44145 c 4.5703,-4.62109 5.2627,-11.32179 4.0036,-38.67469 -0.2792,-6.06607 -0.3983,-13.28422 -0.2642,-16.04152 0.1341,-2.7573 -0.3769,-7.52191 -1.1373,-10.58958 -1.3681,-5.51867 -1.3032,-5.56555 6.2092,-4.34157 6.4596,1.05242 8.2872,0.47979 12.252,-3.84515 3.567,-3.89084 5.9411,-4.82296 10.1181,-3.96852 3.0016,0.614 8.8469,0.005 12.9872,-1.35711 7.7702,-2.55398 22.2323,-16.25911 22.2323,-21.06751 0,-6.52805 2.0325,-5.98559 34.9753,9.32058 11.5961,5.38785 26.2592,7.90606 42.6149,8.13386 v -446.877 c -11.7226,0.39744 -24.5841,1.42598 -31.5175,2.92865 -34.1259,7.39629 -69.5728,24.66091 -106.4309,51.8375 -3.6288,2.67568 -5.4144,2.86759 -9.4058,1.00756 -2.7095,-1.26266 -7.1497,-2.29711 -9.8682,-2.29711 h -4.9428 l 4.3023,-6.17748 c 3.4316,-4.92911 3.8877,-7.05752 2.2574,-10.52789 -1.1239,-2.39235 -2.4995,-6.15419 -3.0558,-8.36003 -0.5564,-2.20581 -3.7074,-11.68095 -7.002,-21.05578 -5.1294,-14.59586 -5.8179,-18.80327 -4.7934,-29.2748 1.6826,-17.19675 -2.0091,-22.86525 -14.8913,-22.86525 -13.5402,0 -16.3355,3.93189 -15.2245,21.40238 0.4788,7.52991 2.2326,19.5561 3.9001,26.7251 1.7244,7.41317 2.2979,13.82544 1.3298,14.86652 -2.0074,2.15881 -5.767,-6.88709 -5.767,-13.87367 0,-2.6204 -0.8832,-5.32252 -1.9616,-6.00419 -1.0783,-0.68162 -1.9616,-4.03412 -1.9616,-7.44941 0,-7.74925 -8.5146,-19.62228 -14.0728,-19.62228 -3.6115,0 -3.9378,0.85464 -2.8893,7.56104 0.7859,5.02669 0.1548,9.56464 -1.8811,13.53586 -3.6654,7.14943 -4.0854,26.62331 -0.718,33.30501 1.3179,2.61515 4.5998,7.171 7.292,10.12544 l 4.8939,5.37264 -4.2276,6.07174 c -2.3253,3.34005 -7.7473,8.09675 -12.0481,10.56901 -7.2327,4.15767 -13.599,12.95896 -13.599,18.7998 0,3.56152 -4.9405,7.20197 -8.0847,5.95717 -1.4846,-0.58774 -4.175,-3.71356 -5.9795,-6.9471 -2.9974,-5.37147 -3.0249,-6.79957 -0.3044,-16.51445 5.3992,-19.2811 5.3432,-19.91751 -2.6911,-30.08848 -8.209,-10.39205 -15.4669,-12.38334 -23.6826,-6.49768 -2.3985,1.71825 -5.1779,2.60889 -6.1777,1.97691 -2.6619,-1.68264 -26.251,-40.56007 -35.1103,-57.86518 -7.6663,-14.97484 -11.116,-26.66333 -10.299,-34.88536 1.0585,-10.65186 -31.1075,-14.25456 -47.8563,-5.36088 -7.2867,3.86927 -11.0362,9.17802 -16.8271,23.82874 -9.523,24.09242 -48.42953,107.01653 -61.54431,131.17264 -7.03973,12.96643 -16.50839,22.23368 -22.71762,22.23368 -6.77041,0 -14.92746,8.37805 -17.84091,18.32394 -1.53238,5.23113 -3.4063,7.74316 -5.76986,7.74316 -4.83751,0 -9.60401,7.62814 -9.60401,15.36882 0,3.54972 -0.89592,7.02019 -1.99318,7.71379 -1.09722,0.69359 -6.65878,-3.53842 -12.35825,-9.40577 -28.4076,-29.24438 -47.44458,-40.88196 -78.29099,-47.86015 -20.81688,-4.70932 -54.93469,5.66854 -67.04993,20.39483 -2.72848,3.31652 -5.79448,5.50201 -6.8124,4.85858 -2.65933,-1.68103 -0.31517,-14.99946 4.00644,-22.76833 2.02904,-3.64751 3.68766,-7.05311 3.68766,-7.56984 0,-2.13687 -11.107,5.18103 -15.18144,10.00206 -5.90772,6.99028 -9.00084,6.67143 -7.92674,-0.81366 0.4748,-3.30876 0.17899,-6.01594 -0.6577,-6.01594 -2.00529,0 -11.52538,12.81574 -11.52538,15.5157 0,1.15654 -1.22854,2.5856 -2.73128,3.1754 -3.56427,1.39893 -10.99117,-6.74945 -10.99117,-12.0583 0,-5.83947 -4.83133,-16.84948 -9.7275,-22.172 -4.69252,-5.10112 -8.96193,-5.55431 -20.11842,-2.13554 -5.97646,1.8314 -8.60936,1.8314 -11.47656,0 -4.9456,-3.15898 -13.93127,-3.01766 -18.35501,0.29079 -2.85566,2.13574 -3.30912,4.2396 -2.27175,10.52789 0.71306,4.32235 1.63523,14.60902 2.05061,22.85938 0.66148,13.13869 1.38355,15.55588 5.81869,19.45779 3.57609,3.14611 5.06336,6.43506 5.06336,11.19469 0,17.69813 -27.57518,27.44358 -77.81998,27.50645 -15.30273,0.0191 -28.30984,-0.77168 -28.90678,-1.75955 -1.35711,-2.24591 7.47424,-46.88326 12.73736,-64.38047 11.60902,-38.5941 25.26745,-57.61886 50.95519,-70.9663 17.51167,-9.09913 26.3361,-9.18717 44.80049,-0.44649 2.58953,1.22582 13.61999,2.22953 24.50974,2.22953 22.5579,0 26.1721,-1.66799 38.4246,-17.73643 4.92911,-6.46426 11.5568,-11.49792 23.52752,-17.86862 9.16587,-4.878 16.66626,-10.07637 16.66626,-11.55306 0,-1.47668 -4.41333,-4.99941 -9.80505,-7.82835 -8.41305,-4.41417 -12.33582,-5.14364 -27.67755,-5.13762 -11.14898,0.005 -20.0032,1.04716 -23.5275,2.77297 -3.10802,1.52196 -8.61744,4.21989 -12.2405,5.99538 -3.62309,1.77544 -10.68039,8.10883 -15.68407,14.07339 -14.82742,17.67488 -33.05589,23.65645 -43.05427,14.12923 -15.16023,-14.44582 -50.2758,-13.07277 -67.19929,2.62609 -8.61806,7.99455 -21.24219,25.48678 -29.06187,40.26978 -14.14846,26.74748 -35.37664,45.74927 -64.86433,58.06198 -10.00448,4.17743 -15.87733,6.74215 -19.26257,8.56273 -13.01305,3.27307 -16.73842,14.46641 -16.17804,28.35538 z"
     style="stroke-width:0.217271" />
  <path
     class="e lb0697319-2783-4509-a414-59dbf53731e3 lb0697319-2783-4509-a414-59dbf53731e3"
     id="e1"
     d="m 1273.2877,724.00449 c 0.3721,-2.99048 2.0053,-5.15279 5.9163,-8.51867 5.2987,-4.56012 6.8264,-5.06979 8.257,-2.75828 0.9654,1.55975 1.6209,4.18825 1.4561,5.84264 -0.1647,1.65436 -0.6416,6.32313 -1.0597,10.37512 -1.0371,10.05071 -5.4006,13.65736 -10.3019,8.51279 -2.0151,-2.11507 -3.9326,-6.66494 -4.2592,-10.11077 -0.1191,-1.25643 -0.1327,-2.34601 -0.01,-3.34283 z"
     style="stroke-width:0.217271" />
  <path
     class="e lb0697319-2783-4509-a414-59dbf53731e3 lb0697319-2783-4509-a414-59dbf53731e3"
     id="e2"
     d="m 1268.5862,712.11362 c -0.8901,-0.91038 10.0582,-33.46998 11.8815,-35.3348 0.5314,-0.54351 1.4811,-0.45914 2.1109,0.18505 2.23,2.28079 2.5254,16.61293 0.4452,21.55513 -2.1718,5.15956 -12.8521,15.21627 -14.4376,13.59462 z"
     style="stroke-width:0.217271" />
  <path
     class="e lb0697319-2783-4509-a414-59dbf53731e3 lb0697319-2783-4509-a414-59dbf53731e3"
     id="e3"
     d="m 1253.1061,305.40064 c 0.1627,-1.6006 1.5599,-3.17388 4.0667,-3.53966 6.5394,-0.95419 12.1559,-8.57789 12.8494,-17.43974 0.5201,-6.64675 1.4117,-8.13421 5.2012,-8.68317 5.3417,-0.77381 12.0912,4.73287 12.0912,9.86404 0,2.40015 1.7624,3.77357 5.3907,4.20055 4.681,0.55091 5.4742,1.62578 6.0025,8.15443 0.6562,8.10855 2.383,8.9266 11.4392,5.40493 7.3277,-2.84947 12.9307,-1.10363 20.1501,6.28032 5.9271,6.06229 7.9474,14.44099 4.0725,16.89044 -1.0784,0.68163 -1.9616,3.58166 -1.9616,6.44479 0,5.01287 0.1416,5.07694 3.7795,1.7096 4.868,-4.50586 17.1017,-7.31848 22.574,-5.1905 4.7018,1.82836 9.5255,14.12964 8.5558,21.81952 -0.3847,3.05054 0.7797,5.54116 3.2798,7.01761 2.1318,1.25898 4.9713,3.64188 6.3098,5.29625 2.8059,3.46809 3.3877,15.28135 0.8329,16.89633 -0.9482,0.59936 -2.1855,2.90059 -2.7514,5.11411 -0.7473,2.9228 0.3578,4.71762 4.038,6.55056 7.0832,3.52777 14.2702,18.56502 13.6651,28.59038 -0.4836,8.01162 -0.4954,8.02246 -9.8453,9.02391 -5.1486,0.55145 -9.3375,1.6814 -9.311,2.50857 0.026,0.8272 0.046,2.40443 0.046,3.50737 0,1.10291 0.9263,2.00628 2.0564,2.00628 1.1301,0 4.2012,2.48061 6.8268,5.51363 3.5181,4.06413 4.4856,6.96605 3.6733,11.03018 -0.9653,4.82914 -0.5034,5.51363 3.7278,5.51363 2.891,0 6.0309,1.87132 7.8148,4.65589 3.6317,5.66904 5.8691,24.90869 3.544,30.47329 -0.9298,2.22549 -4.095,5.36211 -7.0335,6.97061 -5.2276,2.86151 -5.3135,3.21588 -4.0495,16.33525 1.1653,12.09576 0.8765,13.80232 -2.9439,17.4427 l -4.2362,4.03608 5.1151,6.85604 c 4.4007,5.90111 5.1122,8.84084 5.1122,21.08808 0,7.82698 -0.8833,14.78706 -1.9616,15.46872 -1.0784,0.68161 -1.9588,2.97523 -1.9588,5.09356 0,5.66194 -13.3765,11.95256 -25.4115,11.95256 -9.546,0 -12.999,2.35666 -6.9388,4.73519 3.6793,1.44403 3.8152,9.31738 0.247,14.30841 -2.6096,3.65016 -2.7784,3.63032 -5.3735,-0.61981 -2.9725,-4.86816 -7.6194,-5.89029 -7.6194,-1.67729 0,1.48978 0.9983,5.63567 2.2171,9.21191 1.6806,4.93074 1.633,8.51613 -0.201,14.83714 -3.8162,13.15282 -8.4427,16.31879 -24.1909,16.56438 -12.115,0.18891 -13.6803,0.68559 -15.7817,4.99664 -1.2831,2.63218 -3.8204,5.07928 -5.6378,5.43724 -5.3404,1.0519 -16.0074,-5.21829 -18.5991,-10.93325 -2.7238,-6.00622 -1.805,-8.70409 3.0012,-8.80065 5.349,-0.10755 18.4602,-10.43 24.1737,-19.0348 2.9067,-4.37741 6.8418,-13.37527 8.7453,-19.99533 3.7428,-13.01673 9.4718,-23.05526 13.1739,-23.08263 1.2745,-0.009 3.9776,-5.65036 6.0083,-12.53418 5.7227,-19.39942 10.4812,-29.56266 13.8431,-29.56266 3.6313,0 3.6519,-0.15717 0.9161,-7.38773 -3.0546,-8.07352 -2.3592,-31.7794 1.1345,-38.68939 2.6298,-5.20152 2.5956,-6.47306 -0.3274,-12.44313 -1.7908,-3.65746 -3.9894,-8.21912 -4.8853,-10.13426 -3.235,-6.91544 -1.7805,-15.61597 3.4378,-20.56228 5.7242,-5.4259 5.6572,-12.04783 -0.1235,-12.05537 -5.6413,-0.008 -8.6311,-11.76346 -4.2506,-16.71419 1.7762,-2.00739 3.2281,-4.34232 3.2281,-5.1905 0,-0.84819 -4.5491,-5.84445 -10.1095,-11.10068 -9.4194,-8.9042 -10.1694,-10.31685 -11.0113,-20.70036 -0.7813,-9.63656 -1.5251,-11.30529 -5.4884,-12.32268 -7.2249,-1.85465 -14.5355,-13.35615 -15.8822,-24.98608 -0.9609,-8.29799 -1.8959,-10.24883 -4.9054,-10.24883 -7.664,0 -19.0908,-10.03018 -19.2022,-16.8552 -0.059,-3.59356 -0.2772,-3.6198 -3.6992,-0.45235 -2.0007,1.85191 -4.8691,2.88067 -6.373,2.28534 -3.5412,-1.40181 -9.5953,-12.27103 -9.5953,-17.22532 0,-2.11646 -0.8833,-3.84807 -1.9616,-3.84807 -1.0784,0 -1.9587,0.96936 -1.9587,2.15316 0,1.18378 -1.545,1.84631 -3.4321,1.4746 -2.4211,-0.47689 -3.4914,-2.10358 -3.3286,-3.70413 z"
     style="stroke-width:0.217271" />
  <path
     class="e lb0697319-2783-4509-a414-59dbf53731e3 lb0697319-2783-4509-a414-59dbf53731e3"
     id="e4"
     d="m 1242.9765,225.45745 c 0.2054,-5.5097 1.9653,-5.48608 4.7704,0.81073 1.2283,2.7573 3.2359,5.01134 4.4631,5.01134 2.3408,0 1.9709,-1.91253 -2.9122,-15.03985 -4.6659,-12.54332 -3.6568,-31.08135 1.6916,-31.08135 1.6017,0 2.8237,4.95183 3.59,14.53754 0.6685,8.36213 3.4115,20.50188 6.4563,28.57569 5.9311,15.7273 7.454,25.98959 4.8077,32.38263 -2.6163,6.3206 -5.0356,7.09895 -8.8113,2.83172 -2.6289,-2.97108 -2.9002,-4.67703 -1.2436,-7.84304 1.1643,-2.22508 2.1167,-7.3375 2.1167,-11.36212 0,-9.47843 -4.2264,-8.41373 -6.7176,1.69198 -3.2828,13.31663 -5.6959,9.27738 -7.8808,-13.18923 -0.2955,-3.03815 -0.3988,-5.48947 -0.3303,-7.32604 z"
     style="stroke-width:0.217271" />
  <path
     class="e lb0697319-2783-4509-a414-59dbf53731e3 lb0697319-2783-4509-a414-59dbf53731e3"
     id="e5"
     d="m 1236.727,192.67823 c 0.4199,-7.46075 1.4005,-10.52788 3.3689,-10.52788 3.5114,0 3.5639,0.52123 2.1051,21.05577 -0.6659,9.3748 -1.3758,13.20899 -1.5767,8.5216 -0.2009,-4.68741 -1.2922,-8.5216 -2.4269,-8.5216 -1.2569,0 -1.8315,-4.11358 -1.4704,-10.52789 z"
     style="stroke-width:0.217271" />
  <path
     class="e lb0697319-2783-4509-a414-59dbf53731e3 lb0697319-2783-4509-a414-59dbf53731e3"
     id="e6"
     d="m 1176.3257,641.94925 c 0.1836,-1.36112 1.3453,-2.73492 3.6446,-5.29918 2.6191,-2.92089 6.7265,-8.24176 9.1301,-11.82626 3.2783,-4.88889 5.8263,-6.51823 10.1985,-6.51823 5.9204,0 26.5172,6.06861 38.9991,11.49136 28.1767,12.24141 29.8179,13.32773 33.5881,22.26308 5.1054,12.0996 4.7548,15.14776 -4.4459,38.80983 -2.0093,5.1676 -3.6531,11.1467 -3.6531,13.28909 0,2.14243 -1.4255,7.38488 -3.1679,11.65001 -2.3111,5.65734 -2.9206,11.70763 -2.2516,22.36881 0.5043,8.03756 0.2372,15.04578 -0.5945,15.57152 -2.2399,1.41588 -7.8799,-5.02804 -10.9223,-12.47542 -4.745,-11.61509 -3.3234,-20.56792 6.4793,-40.775 11.7033,-24.12499 12.2653,-33.27443 2.5876,-42.11153 -6.5552,-5.98596 -17.9656,-8.2798 -20.4803,-4.11833 -0.6222,1.02973 1.4856,1.79667 4.6814,1.70373 10.3235,-0.30021 21.6091,10.31434 17.6342,16.58495 -1.5394,2.42839 -2.3918,2.21 -5.2529,-1.34538 -3.3638,-4.17994 -12.2405,-7.78251 -12.2405,-4.96725 0,0.79332 2.6468,4.03561 5.8818,7.20562 6.183,6.05866 7.6018,13.08933 3.366,16.68482 -2.9678,2.51921 -5.3242,1.17253 -9.8826,-5.65464 -1.841,-2.75729 -10.0822,-8.62185 -18.3148,-13.03355 -16.1582,-8.6589 -22.103,-14.90123 -22.775,-23.90805 -0.5438,-7.28813 3.8595,-9.08346 6.2839,-2.56147 3.5494,9.54831 21.7153,18.26935 21.7153,10.42509 0,-1.67109 -1.7418,-3.00797 -3.9203,-3.00797 -2.1566,0 -7.5471,-3.70652 -11.9791,-8.2396 -7.5959,-7.76902 -8.3461,-8.08741 -13.0476,-5.51657 -2.7432,1.50006 -6.7816,5.2095 -8.975,8.24254 -4.9242,6.80917 -5.874,6.83649 -10.0635,0.29668 -1.6138,-2.51913 -2.4065,-3.86758 -2.223,-5.2287 z"
     style="stroke-width:0.217271" />
  <path
     class="e lb0697319-2783-4509-a414-59dbf53731e3 lb0697319-2783-4509-a414-59dbf53731e3"
     id="e7"
     d="m 1159.4125,313.08798 c -1.0053,-3.08451 6.5993,-15.43565 9.5724,-15.548 3.8357,-0.14484 14.4175,13.82867 14.4175,19.03771 0,6.95948 3.0093,6.14263 5.8043,-1.57448 4.4079,-12.17055 4.8166,-12.48068 17.9271,-13.67391 14.1291,-1.28594 20.3801,-4.01565 26.6838,-11.65001 8.1749,-9.90053 4.0546,-11.39608 -6.9991,-2.5409 -5.2614,4.21504 -10.1156,6.02652 -18.4182,6.87366 -10.881,1.11028 -11.2755,0.98383 -11.2755,-3.62189 0,-4.33135 12.1228,-19.00247 15.7013,-19.00247 0.7555,0 3.9279,-2.43033 7.0508,-5.39906 l 5.678,-5.39613 0.649,4.55894 c 0.7195,5.06579 -3.622,10.85855 -11.87,15.84175 -5.5673,3.36365 -7.3988,8.49227 -2.9926,8.37769 2.7418,-0.0713 5.3782,-1.97305 16.0488,-11.57364 8.6737,-7.80395 8.471,-11.77331 -1.1488,-22.454 -15.5002,-17.20953 -18.303,-26.6894 -13.1194,-44.38514 3.1978,-10.91658 8.7278,-10.48171 7.6626,0.60219 -0.1766,1.83725 1.0441,6.68392 2.714,10.77169 1.6699,4.08776 3.0884,8.90282 3.1506,10.69825 0.135,3.89982 5.1357,11.40342 19.0529,28.59037 13.5926,16.78593 13.2891,16.37888 15.8592,21.29078 2.6853,5.13184 2.7102,4.70103 -0.5025,9.02977 -1.4326,1.93011 -4.0267,3.51026 -5.7642,3.51026 -8.6662,0 -25.2902,10.37037 -37.0317,23.10319 -6.7724,7.34427 -14.724,15.12687 -17.6686,17.29289 l -5.3534,3.93913 -15.3136,-12.14056 c -8.4225,-6.67745 -16.3057,-12.14347 -17.5192,-12.14347 -1.2135,0 -2.5626,-1.08612 -2.9955,-2.41461 z"
     style="stroke-width:0.217271" />
  <path
     class="e lb0697319-2783-4509-a414-59dbf53731e3 lb0697319-2783-4509-a414-59dbf53731e3"
     id="e8"
     d="m 1128.8744,664.09189 c 0.5099,-7.25204 1.3373,-8.79442 5.0203,-9.3294 3.1448,-0.45681 4.4114,-1.99164 4.4114,-5.34914 0,-15.316 14.533,-19.69294 19.6531,-5.91897 1.2274,3.30168 3.3394,4.89086 6.5023,4.89086 7.5459,0 15.0176,7.30462 15.0206,14.68441 0,3.90159 1.9026,8.63156 4.9025,12.1993 4.9513,5.88852 6.5612,15.9464 2.9208,18.24755 -1.0879,0.68768 -3.7348,0.67935 -5.8818,-0.0176 -2.6401,-0.85703 -3.9031,-0.34981 -3.9031,1.56568 0,4.20679 -7.0281,9.93049 -11.129,9.06502 -2.7135,-0.57264 -3.4545,-2.32546 -3.0702,-7.26141 0.6216,-7.98542 -3.5691,-16.71027 -10.1411,-21.11452 -6.7963,-4.5546 -9.847,-4.14902 -12.9125,1.7096 -3.2763,6.26121 -4.9714,6.29313 -8.8975,0.1645 -1.9607,-3.06064 -2.8812,-8.05362 -2.4958,-13.53585 z"
     style="stroke-width:0.217271" />
  <path
     class="e lb0697319-2783-4509-a414-59dbf53731e3 lb0697319-2783-4509-a414-59dbf53731e3"
     id="e9"
     d="m 1114.9854,292.11152 c -0.3983,-2.35729 0.4015,-4.70828 2.4957,-6.48593 2.9319,-2.48867 8.5878,-0.78093 16.1953,4.88796 3.8813,2.89225 4.5825,2.78236 9.4173,-1.48344 6.8042,-6.00334 8.8432,-15.97314 6.419,-31.36921 -1.7122,-10.87396 -1.517,-12.89856 1.5681,-16.3852 5.1946,-5.87083 8.8422,-4.91848 18.1051,4.72932 4.583,4.77339 8.329,9.50456 8.3231,10.51322 -0.01,1.00866 -2.179,4.54015 -4.8307,7.84891 -2.7868,3.47728 -4.8503,8.67726 -4.891,12.32266 -0.045,4.04388 -1.8159,8.00219 -4.937,11.03019 -2.6773,2.59735 -4.8839,7.01005 -4.9025,9.80527 -0.023,3.46185 -1.851,6.17818 -5.7297,8.5216 -7.2828,4.40009 -7.3725,4.38536 -8.8343,-1.57155 -1.2679,-5.16662 -5.0777,-7.00719 -5.0777,-2.4528 0,1.40899 -1.3745,4.57131 -3.0558,7.02645 -2.4677,3.60343 -3.7895,4.06076 -6.8613,2.37934 -2.0929,-1.1456 -3.8054,-3.74956 -3.8054,-5.78976 0,-2.04018 -2.2066,-5.18744 -4.9025,-6.9941 -2.7003,-1.80961 -4.2975,-4.1756 -4.6957,-6.53293 z"
     style="stroke-width:0.217271" />
  <path
     class="e lb0697319-2783-4509-a414-59dbf53731e3 lb0697319-2783-4509-a414-59dbf53731e3"
     id="e10"
     d="m 1064.3547,669.86401 c 2.2281,-5.93866 32.2197,-12.98007 39.1254,-9.18546 2.4414,1.34153 7.0502,2.99067 10.2445,3.66302 4.8446,1.01974 6.0722,2.51944 7.3982,9.0474 0.8744,4.30411 3.7737,10.75597 6.4448,14.33778 5.3566,7.18289 5.6415,8.05337 3.1535,9.62608 -0.9367,0.59212 -2.2743,4.74522 -2.9754,9.22953 -0.7011,4.48429 -2.0703,9.69463 -3.0415,11.57657 -0.9711,1.88194 -4.5737,9.2867 -8.0071,16.45568 -7.1186,14.86364 -12.1906,21.07683 -15.9684,19.56354 -1.4377,-0.57592 -6.0329,-10.40343 -10.2129,-21.83713 -7.6629,-20.96109 -18.4655,-46.00643 -20.6411,-47.86017 -2.8789,-2.45301 -6.4928,-12.02401 -5.52,-14.61684 z"
     style="stroke-width:0.217271" />
  <path
     class="e lb0697319-2783-4509-a414-59dbf53731e3 lb0697319-2783-4509-a414-59dbf53731e3"
     id="e11"
     d="m 1025.91,355.18484 c -0.091,-9.34558 3.412,-24.50943 8.4724,-36.67428 0.9176,-2.20583 3.1373,-8.52063 4.9341,-14.03524 1.7969,-5.51458 4.072,-11.59425 5.0547,-13.50941 0.9828,-1.91514 1.7865,-4.48644 1.7865,-5.71337 0,-2.17421 4.4025,-13.3673 8.0071,-20.35666 0.9877,-1.91514 1.795,-4.33828 1.795,-5.38437 0,-1.04608 1.0309,-4.44153 2.289,-7.54636 1.2581,-3.10483 3.7382,-9.70658 5.5114,-14.66971 2.3042,-6.44946 4.4487,-9.20629 7.516,-9.66428 2.3605,-0.35243 4.2908,0.38953 4.2908,1.64794 0,1.25842 1.1019,3.44323 2.4499,4.85563 1.3479,1.41235 5.9798,6.95075 10.2932,12.30799 4.3134,5.35724 12.0353,14.26189 17.1574,19.78677 5.1221,5.52489 9.3111,10.61106 9.3111,11.30337 0,0.69232 -1.3833,4.09957 -3.0759,7.56985 -3.8075,7.80619 -2.6734,11.69405 7.4643,25.55894 8.3746,11.45348 11.7136,12.91005 17.4417,7.60802 1.9319,-1.78815 4.8704,-2.71859 6.5281,-2.06797 1.6577,0.6506 3.0127,1.99457 3.0127,2.98742 0,1.76118 -58.8622,46.46492 -64.7006,49.13795 -1.6175,0.74055 -6.471,3.55775 -10.7844,6.25974 -12.3288,7.72298 -27.9335,6.4691 -38.3988,-3.08728 -5.5003,-5.02262 -6.2654,-6.98779 -6.3557,-16.31469 z"
     style="stroke-width:0.217271" />
  <path
     class="e lb0697319-2783-4509-a414-59dbf53731e3 lb0697319-2783-4509-a414-59dbf53731e3"
     id="e12"
     d="m 944.7872,634.95809 c 0.50639,-3.83684 3.09616,-6.66139 7.87791,-9.29416 8.55406,-4.70972 15.06656,-17.10401 15.06656,-28.66968 0,-7.94311 0.69598,-9.32483 6.46202,-12.80441 7.04127,-4.24915 13.74822,-12.49263 15.95978,-19.61937 0.77255,-2.4896 3.76503,-6.023 6.64868,-7.85477 6.85025,-4.35145 14.06425,-12.52277 14.06425,-15.92697 0,-1.67786 2.296,-2.69658 6.0772,-2.69658 12.8062,0 25.1549,-10.57734 31.0177,-26.5694 1.3237,-3.61075 3.4423,-5.51364 6.1403,-5.51364 2.2663,0 6.785,-2.72432 10.0406,-6.05411 5.6522,-5.78103 5.859,-6.58576 4.5837,-17.82456 -0.875,-7.71122 -0.6013,-12.23459 0.7927,-13.11578 1.1702,-0.73975 2.1281,-6.04721 2.1281,-11.79688 0,-8.62959 -1.0165,-11.71382 -5.8158,-17.66886 -3.1976,-3.96773 -8.8866,-8.70496 -12.6426,-10.52789 -5.1894,-2.51867 -8.3088,-6.39188 -12.9958,-16.12964 -6.9644,-14.46919 -9.8471,-18.07092 -20.1644,-25.1976 -4.9858,-3.44394 -7.8855,-7.36532 -9.2651,-12.53123 -1.1046,-4.13596 -2.7067,-7.51994 -3.5613,-7.51994 -0.8546,0 -2.6956,-2.17945 -4.0897,-4.84387 -1.3942,-2.6644 -4.09677,-5.26455 -6.00539,-5.77505 -1.95131,-0.52191 -4.06341,-3.68845 -4.82499,-7.23499 -1.54534,-7.19622 -9.88889,-18.24169 -13.77992,-18.24169 -4.12144,0 -14.6656,-6.77099 -14.67883,-9.42632 -0.007,-1.32336 2.71672,-6.54063 6.05131,-11.59419 6.75238,-10.23316 24.854,-46.72583 30.85402,-62.20088 2.1381,-5.5146 6.5177,-15.43993 9.7304,-22.05745 3.2126,-6.61751 8.2735,-18.3496 11.2468,-26.07003 5.9921,-15.5592 18.9332,-42.19063 23.1369,-47.6134 4.0491,-5.22349 17.9954,-9.53798 30.831,-9.53798 h 11.3789 l 3.1133,11.52958 c 5.0606,18.73972 12.505,33.18838 37.3074,72.40269 10.7916,17.06241 18.6766,36.33339 18.6766,45.64825 0,6.57896 -4.166,12.79563 -8.5729,12.79563 -3.4993,0 -64.2747,-61.44285 -71.9008,-72.6906 -3.552,-5.23885 -7.192,-9.5262 -8.0875,-9.5262 -2.3856,0 -1.8899,2.48435 1.3756,6.9001 1.5833,2.14093 2.8778,5.07468 2.8778,6.51826 0,5.42383 -5.8546,2.31291 -11.9274,-6.33614 -3.4604,-4.92817 -7.0423,-8.48675 -7.9584,-7.90766 -2.2418,1.41713 2.5645,10.36016 9.9429,18.49725 3.312,3.65255 6.0226,8.2644 6.0226,10.24883 0,6.09724 -10.9692,38.89321 -24.5327,73.34856 -0.8684,2.20585 -4.428,12.58139 -7.9095,23.05913 -4.0669,12.23929 -7.4495,19.28018 -9.4604,19.69278 -2.8297,0.58057 -2.8461,1.33542 -0.1781,7.86653 3.957,9.68633 15.5924,23.94674 22.5338,27.61809 15.6161,8.25944 46.0791,-2.63162 75.2553,-26.90722 17.9645,-14.94712 34.1953,-26.2639 37.6692,-26.2639 1.5112,0 4.4868,-1.11152 6.6143,-2.4704 3.4404,-2.19752 5.1193,-1.21515 15.1699,8.88291 15.8621,15.93694 21.6816,16.78949 35.8973,5.26394 5.8809,-4.76802 12.4561,-9.68994 14.6128,-10.93914 2.1567,-1.2492 3.6717,-3.69131 3.366,-5.4255 -0.3057,-1.73418 1.6055,-4.6007 4.2477,-6.37138 6.8516,-4.59168 24.3991,-1.31065 28.6224,5.35209 4.8785,7.69614 12.0966,13.72612 16.4968,13.77966 5.7574,0.0699 20.7905,15.02505 20.7905,20.68269 0,5.40033 9.7668,19.57816 16.6749,24.20769 2.6919,1.80394 4.8939,4.49778 4.8939,5.98654 0,4.43823 7.6107,20.67144 12.5134,26.68986 5.3198,6.53044 7.369,17.95963 8.0186,44.70531 0.3186,13.11887 1.4658,20.92554 3.6791,25.06834 3.6233,6.78211 3.6465,7.32331 0.7323,17.04321 -1.1573,3.86021 -2.2627,13.78847 -2.4555,22.06037 -0.1929,8.27191 -1.3867,17.74701 -2.6509,21.05577 -1.2642,3.30876 -3.2445,8.72312 -4.4028,12.03186 -3.3812,9.65854 -6.2599,15.81601 -8.9894,19.2228 -3.5005,4.36907 -12.9905,25.10126 -16.1436,35.27017 -2.9614,9.55097 -15.4424,22.77576 -25.1961,26.69573 -5.9689,2.39887 -6.8733,2.2148 -11.7638,-2.37056 -11.2327,-10.53191 -52.2403,-25.67933 -69.5198,-25.67933 h -10.48 l -11.2927,14.03816 c -6.2099,7.72042 -12.5008,14.03815 -13.981,14.03815 -1.4802,0 -4.5749,-2.70718 -6.8784,-6.01594 -3.2292,-4.63825 -5.6944,-6.01592 -10.7672,-6.01592 -6.8525,0 -9.7927,2.74828 -19.3056,18.0478 -3.591,5.77525 -5.7284,7.134 -12.0654,7.66678 -4.7296,0.39767 -8.4897,-0.37709 -9.7418,-2.00628 -5.7433,-7.47289 -7.9244,-7.78557 -18.3751,-2.62904 -5.5613,2.74398 -13.2056,4.98783 -16.9851,4.98783 h -6.8698 v -18.14475 c 0,-12.51244 -0.9488,-20.02553 -3.0559,-24.193 -5.3895,-10.65981 -7.7716,-6.08116 -7.2633,13.96767 0.2558,10.08884 -0.2399,18.3445 -1.1028,18.3445 -0.863,0 -8.9715,-7.23331 -18.019,-16.07382 -9.0476,-8.84054 -17.2429,-15.80187 -18.2114,-15.47166 -1.5047,0.51298 11.7509,18.81872 19.7393,27.25972 7.1327,7.5368 37.7152,66.26573 37.7152,72.4262 0,1.05 1.2625,4.87325 2.806,8.49516 1.5434,3.6219 5.4794,13.35373 8.7452,21.62563 3.2659,8.2719 9.051,22.25799 12.8552,31.08135 6.1602,14.28784 6.9174,17.93926 6.9387,33.37551 0.018,13.37182 0.6831,17.59046 2.9036,18.46198 1.583,0.6213 3.3256,0.3854 3.8744,-0.52287 1.5805,-2.61561 1.8099,-20.79175 0.3217,-25.57653 -2.2899,-7.36204 2.19,-7.14223 7.8032,0.38481 3.2915,4.4138 6.0298,6.43455 7.1571,5.28157 2.2237,-2.27446 -1.6419,-9.62635 -12.2923,-23.38225 -4.2696,-5.5146 -7.7657,-11.34816 -7.7716,-12.96304 -0.01,-1.61489 3.4386,-9.73641 7.6539,-18.04781 4.2152,-8.31139 10.9504,-23.68502 14.9689,-34.16275 7.9978,-20.85339 13.4059,-30.07967 17.6255,-30.07967 4.6775,0 7.2737,7.79786 5.8446,17.54551 -0.731,4.98569 -2.1685,18.6422 -3.1966,30.3499 -2.1361,24.3267 -4.3205,44.12092 -7.5074,68.03763 -1.6851,12.64662 -1.6547,20.63245 0.1235,33.08764 3.7419,26.21032 3.7227,26.34562 -3.7939,27.08346 -17.5894,1.72659 -39.032,-7.53732 -56.8055,-24.54255 -16.9869,-16.25259 -27.4447,-32.70959 -51.0672,-80.37205 -18.8294,-37.99146 -36.61242,-66.82018 -49.48473,-80.21344 -3.18007,-3.30876 -10.78053,-7.83581 -16.89029,-10.06082 -10.04402,-3.65776 -11.67215,-5.1018 -16.9707,-15.06921 -3.55235,-6.68247 -5.12748,-11.53199 -4.62106,-15.36883 z"
     style="stroke-width:0.217271" />
  <path
     class="e lb0697319-2783-4509-a414-59dbf53731e3 lb0697319-2783-4509-a414-59dbf53731e3"
     id="e13"
     d="m 883.8173,640.27783 c -0.97088,-4.46502 1.06732,-11.47695 6.47065,-23.16781 3.7742,-8.16601 9.96072,-21.55289 13.7483,-29.74773 12.97349,-28.06964 37.18016,-56.9408 50.63352,-60.39433 5.84388,-1.50015 18.94378,-16.4411 18.94378,-21.60508 0,-5.61887 7.91631,-19.05778 14.94306,-25.36798 7.08687,-6.36416 12.18309,-7.46297 18.51869,-3.99494 2.7492,1.50484 3.7911,1.42601 3.7911,-0.282 0,-4.22039 -6.6878,-7.68098 -14.96606,-7.74612 -8.75165,-0.0689 -11.31791,-3.46952 -8.39487,-11.12419 2.54692,-6.66975 1.96166,-20.23904 -1.13446,-26.31089 l -2.92942,-5.74277 -0.0117,10.67477 c -0.0102,9.0731 -0.52729,10.57666 -3.44353,10.02559 -4.4791,-0.8464 -16.56575,-26.50383 -16.56575,-35.16442 0,-6.94949 -2.29428,-8.7712 -4.30228,-3.41922 -2.21988,5.9168 -1.20179,10.30762 5.47407,23.64074 3.90071,7.79063 5.86131,13.8137 4.73019,14.52872 -1.06263,0.67172 -2.91267,0.2169 -4.11271,-1.01051 -1.20008,-1.22741 -4.15292,-2.23246 -6.55968,-2.23246 -5.51513,0 -12.22,-9.3855 -16.95634,-23.73473 -1.95525,-5.92367 -7.52935,-16.93939 -12.38699,-24.48088 -8.26164,-12.82616 -8.79302,-14.46309 -8.23978,-25.35916 0.54698,-10.77284 0.96353,-11.69405 5.54012,-12.24042 4.20878,-0.50248 5.30907,-2.1521 7.35807,-11.03017 1.32502,-5.74114 3.89747,-11.5668 5.71817,-12.94543 4.91737,-3.72346 10.63458,-3.03712 11.77237,1.41292 0.93772,3.66763 1.30767,3.71723 5.74114,0.74611 11.37837,-7.62531 27.90284,1.38015 31.56051,17.19888 1.19628,5.17367 2.92837,7.37058 6.47926,8.22196 5.03537,1.20731 11.41387,11.6399 11.64307,19.04362 0.1773,5.7233 2.0869,7.87055 9.8683,11.09188 11.2479,4.65637 21.4471,20.38901 21.5371,33.22276 0.021,3.01529 2.3916,5.26513 8.3633,7.93703 4.583,2.0505 10.7571,6.40899 13.7225,9.68776 7.7311,8.548 7.6117,21.3251 -0.2757,29.39231 -4.7102,4.81751 -5.2073,6.18954 -2.941,8.11328 4.5693,3.87862 3.3492,13.34796 -2.1999,17.06669 -4.7059,3.15367 -5.2826,3.0629 -12.746,-1.98866 -4.2987,-2.90962 -7.8147,-4.37329 -7.8147,-3.25471 0,1.11858 0.8472,2.03273 1.884,2.03273 1.0368,0 2.813,3.52121 3.9462,7.8254 2.3156,8.7958 0.1995,17.19212 -5.4167,21.48464 -5.6308,4.30371 -22.3026,9.14226 -27.1807,7.89004 -4.1661,-1.06943 -4.6038,-0.5211 -4.6038,5.76332 0,8.71015 -5.79444,13.50557 -14.23361,11.77924 -5.04678,-1.03234 -5.67076,-0.68519 -4.70725,2.61436 3.45644,11.83658 3.33779,14.11176 -1.05401,20.6357 -7.68641,11.41794 -23.07442,14.14789 -29.48119,5.22868 -2.48121,-3.45418 -1.62925,0.28615 1.43028,6.28618 1.61085,3.15911 2.93358,10.93347 2.94092,17.27525 0.0148,13.38247 -4.63064,20.24959 -12.97286,19.17872 -4.85191,-0.62278 -4.89741,-0.48397 -5.35918,16.4146 -0.25616,9.3748 -1.18002,18.62629 -2.05349,20.55638 -1.1586,2.5602 -0.73621,3.50735 1.56237,3.50735 7.30549,0 1.03326,10.07996 -8.02726,12.90135 -4.22411,1.31536 -14.72455,-2.8794 -19.14194,-7.64622 -4.52176,-4.87946 -8.89461,-13.34257 -8.89461,-17.2165 0,-4.28778 -2.83665,-5.48792 -4.89967,-2.07385 -1.67492,2.77186 -9.4986,2.51648 -12.35251,-0.40243 -0.97885,-1.00119 -1.63794,-2.207 -1.96157,-3.69535 z"
     style="stroke-width:0.217271" />
  <path
     class="e lb0697319-2783-4509-a414-59dbf53731e3 lb0697319-2783-4509-a414-59dbf53731e3"
     id="e14"
     d="m 770.8066,426.19518 c 0.0525,-0.68919 0.31326,-1.49474 0.7697,-2.25011 1.31491,-2.17606 2.71824,-1.66121 6.75782,2.47042 5.61866,5.74672 6.55234,10.41362 2.40675,12.04068 -1.59179,0.62475 -3.79505,-1.13305 -5.38789,-4.29752 -1.48236,-2.94496 -3.31322,-5.82898 -4.06678,-6.40955 -0.37677,-0.29027 -0.5321,-0.86474 -0.4796,-1.55392 z"
     style="stroke-width:0.217271" />
  <path
     class="e lb0697319-2783-4509-a414-59dbf53731e3 lb0697319-2783-4509-a414-59dbf53731e3"
     id="e15"
     d="m 756.41495,551.58394 c 0.32604,-0.96073 1.36277,-2.05547 3.21953,-3.60722 2.54572,-2.12755 5.71697,-3.86863 7.04789,-3.86863 1.33094,0 4.1005,-2.0304 6.15474,-4.51195 3.7312,-4.5074 3.72974,-4.50744 -0.34177,-1.00168 -8.13252,7.00242 -13.55,2.81475 -8.5988,-6.64749 2.43837,-4.66003 6.38967,-4.99261 9.77345,-0.8225 2.9962,3.69249 4.43634,2.76096 2.73704,-1.76835 -0.67995,-1.81224 -2.35492,-3.29583 -3.72501,-3.29583 -1.37009,0 -3.56773,-1.32316 -4.88242,-2.94336 -1.90708,-2.35024 -1.53545,-5.6524 1.83521,-16.32351 7.85723,-24.87512 16.60032,-30.73878 18.36649,-12.31679 0.55515,5.79033 1.46004,13.23504 2.01041,16.54383 0.5504,3.30874 0.0596,8.7231 -1.09135,12.03186 -1.15099,3.30874 -3.00026,8.59223 -4.10984,11.73811 -2.38575,6.76396 -12.8367,17.31753 -17.16027,17.33106 -1.67143,0.005 -4.09676,1.0911 -5.39076,2.41461 -1.82991,1.87168 -2.89871,1.84131 -4.80487,-0.14093 -0.98314,-1.02243 -1.36573,-1.85045 -1.03967,-2.81116 z"
     style="stroke-width:0.217271" />
  <path
     class="e lb0697319-2783-4509-a414-59dbf53731e3 lb0697319-2783-4509-a414-59dbf53731e3"
     id="e16"
     d="m 748.15792,388.44872 c 0.47795,-1.93247 3.02435,-1.94612 7.51892,0.45236 2.86554,1.52918 6.39814,2.78601 7.84921,2.79355 4.24983,0.0198 13.86387,7.90112 16.72084,13.70622 4.08303,8.29633 5.4126,15.97994 3.02422,17.48967 -1.17627,0.74355 -3.12232,0.34909 -4.32238,-0.87829 -1.20005,-1.22739 -4.14425,-2.23247 -6.54243,-2.23247 -4.31827,0 -6.27938,-2.05608 -19.3516,-20.27442 -3.78359,-5.27302 -5.37473,-9.12416 -4.89678,-11.05662 z"
     style="stroke-width:0.217271" />
  <path
     class="e lb0697319-2783-4509-a414-59dbf53731e3 lb0697319-2783-4509-a414-59dbf53731e3"
     id="e17"
     d="m 747.84198,452.84389 c -0.18494,0.32886 1.39122,0.56106 4.22187,0.56106 3.7742,0 5.31915,-0.4121 3.43206,-0.9165 -1.88711,-0.50437 -4.97699,-0.50437 -6.86412,0 -0.47176,0.12604 -0.72814,0.24582 -0.78981,0.35544 z"
     style="stroke-width:0.217271" />
  <path
     class="e lb0697319-2783-4509-a414-59dbf53731e3 lb0697319-2783-4509-a414-59dbf53731e3"
     id="e18"
     d="m 718.34932,600.94807 c -0.30155,-9.18137 3.29269,-17.73575 11.26116,-27.48587 7.73058,-9.45907 10.55194,-10.15038 10.88493,-2.66429 0.1842,4.14106 0.27233,4.11499 1.52503,-0.46998 1.7894,-6.54928 5.00539,-7.27067 7.62518,-1.70963 l 2.15401,4.56777 0.13205,-4.53839 c 0.1016,-3.4758 2.64741,-5.75424 10.87918,-9.74065 11.9833,-5.80314 22.92826,-16.98302 27.44205,-28.03225 3.78534,-9.26597 3.77342,-19.97443 -0.0374,-38.65708 -2.81779,-13.81457 -2.78859,-15.05124 0.41644,-18.67348 1.89998,-2.14731 4.99668,-3.45985 6.93876,-2.9404 2.37111,0.63418 3.50961,-0.18385 3.50961,-2.52623 0,-5.22655 5.95675,-22.03821 8.3432,-23.54673 1.15204,-0.72822 3.65646,0.64897 5.56595,3.06084 3.34589,4.22619 3.2985,4.78503 -1.29815,15.41584 -2.62332,6.06693 -4.77042,12.3594 -4.77042,13.98233 0,4.15377 -5.40558,3.68607 -6.49074,-0.56104 -0.7565,-2.96078 -0.93107,-2.99744 -1.12295,-0.24382 -0.27237,3.90864 4.71505,8.59504 7.36383,6.92068 1.034,-0.65362 4.25077,-7.54062 7.1513,-15.30421 2.94009,-7.86951 7.13577,-15.33921 9.4805,-16.88162 16.9173,-11.12849 55.30709,-15.59542 80.66901,-9.38817 16.63061,4.07032 17.38606,6.09801 9.10715,24.52786 -3.18149,7.0824 -7.07175,16.03526 -8.64189,19.89548 -4.83398,11.88468 -25.41588,38.20279 -44.79758,57.28356 -20.11881,19.80642 -35.37941,28.94579 -48.34456,28.94579 -6.97998,0 -7.81306,-0.58878 -9.69015,-6.84429 -2.28218,-7.6055 0.12897,-26.23989 4.0208,-31.08135 1.79998,-2.23915 1.66126,-2.63463 -0.66342,-1.88292 -4.40381,1.42402 -11.63592,25.07936 -11.55697,37.80228 0.0816,13.16008 3.3525,23.70704 3.57566,11.52957 0.15031,-8.20237 2.6378,-9.45413 8.32308,-4.19175 3.14505,2.91111 4.63312,3.00571 11.91884,0.75491 4.57851,-1.41446 11.27608,-3.46079 14.88276,-4.54721 5.74524,-1.73059 16.08334,-9.32879 33.0281,-24.26935 7.12644,-6.28353 28.1171,-32.75586 35.24529,-44.44975 5.54438,-9.09557 14.56814,-27.87343 18.30621,-38.09898 0.80635,-2.20583 2.45781,-6.53526 3.67043,-9.62019 4.58303,-11.65948 1.19401,-22.30152 -13.52143,-42.47285 -17.63099,-24.16792 -47.70498,-42.80288 -77.82284,-48.22147 -15.03455,-2.70493 -27.43247,-1.42029 -32.81272,3.39571 -3.58976,3.21331 -6.70949,1.61695 -7.51892,-3.8481 -0.44923,-3.03302 -0.94702,0.91239 -1.10858,8.76834 -0.30409,14.78517 4.09209,29.41655 10.46559,34.82663 3.76062,3.19219 3.73596,0.23013 -0.0402,-4.8762 -1.81826,-2.45875 -2.87776,-8.50987 -2.87776,-16.42924 0,-15.80595 3.2665,-18.79041 20.532,-18.75869 23.25269,0.0427 49.35492,11.92848 70.26372,31.99491 14.53286,13.94737 24.88021,27.78758 24.88021,33.27857 0,2.82787 -1.25578,3.19445 -7.35233,2.15023 -18.46047,-3.16191 -34.01717,-3.6031 -47.1383,-1.3395 -7.76406,1.33943 -14.61215,3.25542 -15.21877,4.25934 -0.60665,1.00393 -3.20417,1.82417 -5.77275,1.82417 -2.56858,0 -5.15713,0.8023 -5.74976,1.78304 -0.59261,0.98074 -3.35643,2.36895 -6.14322,3.08434 -3.93392,1.00985 -6.5832,-0.0614 -11.84992,-4.79101 -3.73098,-3.3505 -7.60452,-6.09229 -8.60742,-6.09229 -2.3884,0 -6.25236,7.4742 -7.77452,15.03983 -0.84823,4.21578 -2.3603,6.01592 -5.05186,6.01592 -3.57964,0 -3.84014,-1.49932 -3.86574,-22.05744 -0.0307,-24.7898 -2.22206,-31.38094 -13.20549,-39.7322 -6.67345,-5.07416 -23.02356,-11.40325 -29.45821,-11.40325 -13.0262,0 -24.95201,-18.82123 -24.95201,-39.37969 0,-11.32572 2.87694,-18.9646 4.66412,-12.38436 4.63197,17.05422 7.54577,25.74197 8.9291,26.6164 0.91953,0.58127 0.91039,-2.32252 -0.023,-6.4507 -1.0759,-4.75853 -0.91377,-10.07314 0.44517,-14.52283 4.21381,-13.79754 5.33864,-12.51673 8.65911,9.8787 l 1.31539,8.87997 4.31948,-7.32309 c 6.17501,-10.46473 10.36159,-14.75386 18.78296,-19.24336 33.15297,-17.67414 66.31873,-12.22282 101.79837,16.73474 35.92757,29.32317 70.75698,78.94772 70.7089,100.74341 -0.006,2.41647 1.01205,5.04185 2.26025,5.83087 1.56379,0.98848 1.91501,0.0502 1.13157,-3.01384 -1.18584,-4.63809 3.6361,-8.53842 6.10878,-4.94081 1.55134,2.25708 14.91903,8.02083 22.47923,9.69069 3.89094,0.85944 6.35008,3.25079 8.33168,8.10153 1.54646,3.78554 2.81169,7.30855 2.81169,7.82835 0,0.5198 -3.4164,4.98349 -7.59357,9.91986 -5.39885,6.38 -7.98086,11.60394 -8.92907,18.07129 -1.12456,7.66987 -2.46981,9.81549 -8.5787,13.66802 -3.98552,2.51346 -9.01257,6.08927 -11.16925,7.94585 -2.1567,1.85663 -10.5374,8.9852 -18.62499,15.83883 -8.08758,6.85363 -20.44145,18.8517 -27.45067,26.66339 -30.60824,34.11255 -50.57197,50.68386 -74.5028,61.84253 -20.04444,9.34647 -36.46949,11.13455 -56.85717,6.1863 -4.17646,-1.01368 -3.50898,0.19735 4.51192,8.18966 5.17743,5.15893 8.87163,10.27485 8.21108,11.368 -2.40394,3.97831 -21.91115,-3.92572 -30.95164,-12.54005 -6.69113,-6.3757 -17.06263,-24.20002 -17.06263,-29.32473 0,-7.56259 -3.90978,-4.57917 -4.23047,3.22828 -0.41599,10.12798 -0.37305,10.67605 1.33548,17.30756 1.1359,4.40876 0.86348,5.56419 -1.14591,4.87913 -3.55821,-1.21311 -8.81759,-11.20466 -12.40709,-23.56732 -0.94867,-3.26728 -1.48196,-6.39818 -1.58247,-9.45865 z"
     style="stroke-width:0.217271" />
  <path
     class="e lb0697319-2783-4509-a414-59dbf53731e3 lb0697319-2783-4509-a414-59dbf53731e3"
     id="e19"
     d="m 699.53766,579.11388 c 0.58351,-3.19185 2.60576,-7.07668 5.89338,-10.68063 10.80699,-11.84689 12.32092,-16.72296 12.32092,-39.68814 0,-15.79559 0.58926,-20.54458 2.45269,-19.81322 1.34793,0.52904 2.44982,0.0644 2.44982,-1.03104 0,-3.19087 15.94286,-28.6164 20.42286,-32.57063 2.24711,-1.98341 5.85047,-4.40761 8.00717,-5.38731 3.20504,-1.45598 3.31582,-1.80546 0.60599,-1.90938 -1.82345,-0.0699 -3.86269,0.77705 -4.52915,1.87998 -0.66646,1.10291 -2.92437,2.00337 -5.01741,2.00337 -3.21492,0 -3.80542,-1.4293 -3.80542,-9.21485 0,-5.0687 -1.49537,-11.80885 -3.32579,-14.97814 -4.03836,-6.99228 -2.85993,-8.67402 4.16444,-5.94251 2.91558,1.13377 8.11104,1.95977 11.54547,1.83299 l 6.24373,-0.23207 -6.8641,-1.40409 c -12.52552,-2.56168 -15.43138,-5.25373 -14.75064,-13.65925 0.57629,-7.11564 -2.09578,-15.82659 -6.92727,-22.57736 -1.5644,-2.18589 -1.55927,-4.5928 0.0202,-8.8124 l 2.1741,-5.80739 4.8135,4.62652 c 4.7253,4.54036 26.43398,36.65657 26.43398,39.1065 0,2.43473 11.73787,18.65113 17.58818,24.29875 3.26664,3.15343 5.85712,6.18643 5.7555,6.74147 -0.10162,0.55505 -3.85031,4.31923 -8.33168,8.36298 -4.4814,4.04376 -9.56764,10.35854 -11.30138,14.03523 -4.25576,9.02511 -9.9912,22.07367 -16.60021,37.76703 -3.01911,7.16898 -6.90051,15.2905 -8.62465,18.0478 -1.72411,2.75728 -4.34258,7.47096 -5.81868,10.475 -4.87831,9.92785 -28.2214,32.40879 -32.24692,31.05491 -2.47648,-0.83291 -3.33203,-3.33229 -2.74853,-6.52412 z"
     style="stroke-width:0.217271" />
  <path
     class="e lb0697319-2783-4509-a414-59dbf53731e3 lb0697319-2783-4509-a414-59dbf53731e3"
     id="e20"
     d="m 692.56729,615.53554 c 0.25579,-1.82551 1.10928,-4.25613 2.62503,-7.76078 3.72816,-8.62022 8.02501,-12.69219 10.60634,-10.05202 1.51734,1.55193 1.47386,1.77316 -2.54175,13.44185 -3.68064,10.69542 -6.17324,12.87244 -9.72748,8.49222 -0.87377,-1.07684 -1.21791,-2.29573 -0.96214,-4.12127 z"
     style="stroke-width:0.217271" />
  <path
     class="e lb0697319-2783-4509-a414-59dbf53731e3 lb0697319-2783-4509-a414-59dbf53731e3"
     id="e21"
     d="m 654.15705,236.37601 c -0.54411,-1.61737 0.27185,-3.09021 2.89499,-3.09021 1.661,0 9.38289,-6.60042 17.15738,-14.66677 16.70819,-17.3355 21.76015,-20.80733 35.68185,-24.51611 8.69558,-2.31654 12.87036,-2.3542 24.85149,-0.22326 17.14575,3.04953 22.73328,5.61887 18.91506,8.69492 -1.41609,1.1408 -6.60659,3.61468 -11.53685,5.49894 -10.02441,3.83117 -18.18177,10.56428 -26.17265,21.60212 -9.5617,13.20776 -28.63572,19.00289 -45.11065,13.70622 -3.31158,-1.06465 -8.4479,-2.43541 -11.41335,-3.04614 -2.81842,-0.58044 -4.72318,-2.34234 -5.26727,-3.95971 z"
     style="stroke-width:0.217271" />
  <path
     class="e lb0697319-2783-4509-a414-59dbf53731e3 lb0697319-2783-4509-a414-59dbf53731e3"
     id="e22"
     d="m 650.44354,302.66878 c -0.74773,-6.67975 1.86288,-9.00532 8.61889,-7.68441 5.34868,1.04579 6.11428,5.50804 1.91851,11.17118 -3.98402,5.37734 -9.75911,3.46583 -10.5374,-3.48677 z"
     style="stroke-width:0.217271" />
  <path
     class="e lb0697319-2783-4509-a414-59dbf53731e3 lb0697319-2783-4509-a414-59dbf53731e3"
     id="e23"
     d="m 599.22124,637.65173 c -1.14111,-9.07543 3.02721,-19.27919 10.08937,-20.72382 6.57996,-1.346 6.80982,-3.00306 1.45324,-10.41332 -5.18568,-7.17389 -7.94237,-19.34222 -6.4132,-28.31427 2.97842,-17.47518 14.43522,-30.09809 33.7691,-37.2089 l 9.48337,-3.48971 -0.95639,-8.69785 c -0.81345,-7.38151 -0.25465,-9.30156 3.70203,-12.67222 2.56478,-2.18493 6.24927,-4.00527 8.18522,-4.04197 2.93916,-0.0556 3.31148,-1.1984 2.26028,-6.92948 -2.41502,-13.1666 -1.585,-20.28837 3.74797,-32.19465 2.97408,-6.63988 8.38707,-14.53617 12.13424,-17.6953 8.02877,-6.76885 8.54561,-9.42047 1.83523,-9.42047 -15.35151,0 -17.19304,-37.59235 -2.61927,-53.45898 l 4.02367,-4.38269 -6.04558,-3.19889 c -11.6243,-6.14819 -15.20457,-21.22765 -8.1077,-34.151 2.13826,-3.89377 3.68323,-7.14 3.43206,-7.21443 -0.25116,-0.0745 -3.54656,-0.53503 -7.32076,-1.02224 -3.77418,-0.48721 -7.96313,-2.40433 -9.31104,-4.25933 -5.22398,-7.18918 -1.04535,-26.66928 5.72104,-26.66928 2.12733,0 8.15081,-3.69144 13.38357,-8.20434 7.51118,-6.47786 10.47411,-7.90729 14.07571,-6.7885 11.43352,3.55176 19.19446,18.69106 12.24625,23.8875 -3.1444,2.35166 -2.7746,2.82883 3.92605,5.09064 12.1547,4.10283 16.52155,19.94611 8.98365,32.59119 -5.14538,8.63157 -4.94736,10.26853 1.05689,8.72721 4.45978,-1.14485 5.40163,-0.3132 8.94057,7.8695 5.00741,11.57809 4.32726,21.33834 -1.67438,24.03142 -4.87101,2.18573 -6.00345,7.04405 -1.64279,7.04405 4.20598,0 12.91829,11.68844 12.91829,17.33104 0,8.38416 -3.45851,12.74864 -10.10087,12.74864 h -6.03981 l 7.17714,8.12795 c 3.94782,4.46934 8.01949,10.39431 9.04971,13.16573 3.0295,8.14983 2.01973,17.21361 -2.95244,26.49304 -6.51801,12.16439 -10.70792,16.38517 -16.2728,16.38517 -3.77644,0 -4.52509,0.75065 -3.48373,3.50735 2.22929,5.90153 4.97745,22.6986 4.96569,30.35579 -0.0271,17.89739 -9.85093,33.64068 -26.20421,41.99405 -10.97929,5.60829 -11.6592,8.74652 -1.72323,7.95172 6.6927,-0.53536 7.40707,-0.10499 7.96122,4.80276 0.62446,5.53034 -3.12097,18.78403 -7.82623,27.69446 -5.00113,9.47075 -16.96861,27.63405 -19.09024,28.97516 -1.16782,0.7382 -2.12242,2.24268 -2.12242,3.34285 0,3.66398 10.69225,-4.48804 17.63703,-13.44773 3.76918,-4.8628 7.89564,-8.84177 9.17033,-8.84177 3.59228,0 10.44548,10.02716 10.44548,15.28363 0,3.4952 -1.77826,5.47624 -6.86984,7.6521 l -6.86984,2.93455 4.69573,4.80276 c 3.34733,3.42362 4.41541,6.29555 3.72212,10.00501 -2.01541,10.7832 -11.20497,14.09126 -29.35767,10.57195 -7.72882,-1.49842 -8.14583,-1.34068 -7.12259,2.66134 0.88569,3.46402 -0.29618,4.84172 -6.38448,7.44355 -15.83896,6.76877 -27.142,5.56623 -37.85883,-4.02728 -6.84811,-6.13028 -12.51944,-20.20802 -10.99693,-27.29788 0.83236,-3.87612 0.215,-7.39814 -1.82372,-10.37514 -1.64916,-2.40818 -2.62089,-5.30551 -3.00126,-8.33067 z"
     style="stroke-width:0.217271" />
  <path
     class="e lb0697319-2783-4509-a414-59dbf53731e3 lb0697319-2783-4509-a414-59dbf53731e3"
     id="e24"
     d="m 439.75865,360.51633 c 0.005,-3.02411 0.24713,-5.86945 0.78406,-8.40996 1.4318,-6.77474 4.43591,-11.17886 11.00554,-12.77211 l 34.90066,-13.31847 c 23.18116,-12.09585 49.94226,-41.21882 63.06933,-68.63982 7.57984,-15.83344 20.65853,-28.3486 34.10512,-32.63234 14.11534,-4.49676 20.95184,-4.40055 32.01428,0.44944 11.96464,5.24554 12.15702,10.40511 0.50836,13.59166 -6.21138,1.69917 -11.95557,5.84364 -21.50561,15.51572 -20.90509,21.17216 -33.2078,46.14827 -41.51203,84.27888 -9.44676,43.37683 -17.31611,58.28927 -36.98574,70.07918 -8.46654,5.07478 -11.71427,9.11497 -7.32363,9.11497 5.42305,0 13.57991,-5.3346 24.39485,-15.95635 l 12.1084,-11.89381 11.22094,1.55982 c 6.17083,0.85648 11.64825,1.99683 12.17445,2.53501 0.52619,0.53818 -1.70397,4.67872 -4.95709,9.2031 -8.23433,11.45216 -3.8812,12.73006 6.40745,1.87996 10.10207,-10.6533 14.88275,-13.39059 23.44709,-13.4154 8.39271,-0.0244 41.10878,-6.79138 53.29876,-11.02433 5.19884,-1.80527 9.58887,-2.98657 9.75622,-2.62607 0.16734,0.36047 2.74972,3.42663 5.73826,6.81491 l 5.43385,6.16282 -4.94559,11.43262 c -2.71898,6.28821 -4.94273,13.85816 -4.94273,16.82287 0,6.35321 5.43406,22.22293 9.15597,26.73977 3.59401,4.36168 3.28286,6.61496 -1.52218,11.05957 -7.49463,6.93246 -12.1274,19.11899 -13.10786,34.47706 -0.67156,10.51985 -1.84687,15.29217 -4.19887,17.04318 -5.50092,4.09535 -9.93428,12.06248 -9.93428,17.85687 0,4.6973 -1.61643,6.31901 -10.9883,11.01257 -12.12601,6.07287 -23.01345,17.63968 -26.35644,27.99994 -1.19383,3.69976 -3.3954,6.72679 -4.89103,6.72679 -3.76437,0 -18.55719,-8.64834 -37.16955,-21.73136 -60.95018,-42.84318 -93.4361,-86.97891 -110.88885,-150.531 l -6.61369,-23.34068 c -1.03889,-5.48387 -1.68858,-11.02479 -1.68012,-16.06501 z"
     style="stroke-width:0.217271" />
  <path
     class="e lb0697319-2783-4509-a414-59dbf53731e3 lb0697319-2783-4509-a414-59dbf53731e3"
     id="e25"
     d="m 1300.9106,282.20933 c 0.2125,0.74895 0.8039,1.21022 1.8439,1.21022 0.9436,0 3.0864,2.89501 4.7618,6.43306 2.0555,4.34097 4.5252,6.50206 7.5964,6.64748 19.021,0.90107 18.2473,0.5859 23.8923,9.7201 4.968,8.03871 6.0565,8.74515 13.1883,8.55391 6.375,-0.17097 8.8426,0.95895 13.7023,6.27736 6.8752,7.52406 11.6087,18.06177 11.6087,25.84385 0,2.99736 1.9851,7.6098 4.4114,10.25175 3.4403,3.74613 4.4114,7.16598 4.4114,15.53628 0,8.82717 0.9169,11.73667 5.1639,16.38224 2.8401,3.1067 5.6232,8.35595 6.1863,11.66469 0.563,3.30876 1.6546,9.35108 2.4268,13.42718 1.6518,8.71867 0.1671,16.14081 -4.107,20.51233 -2.6493,2.70968 -2.7183,4.1322 -0.4997,10.40744 1.4133,3.99735 4.3852,8.73828 6.6056,10.5367 4.8694,3.94393 6.6065,8.18714 8.6505,21.13508 1.9549,12.38299 -0.2319,20.49195 -7.7228,28.62857 -5.2503,5.70288 -5.7536,7.32867 -4.6986,15.20137 0.8157,6.0871 0.2322,10.69243 -1.8812,14.87243 -2.8505,5.63797 -2.7804,6.63227 1.0052,14.45821 4.7292,9.77631 4.918,13.38555 1.6399,31.15477 -2.7773,15.05471 -8.8642,22.74456 -22.5998,28.55513 -6.0779,2.57115 -9.4034,5.71915 -12.6426,11.96431 -2.4176,4.66104 -3.8272,9.41487 -3.1334,10.56313 1.5899,2.63103 15.4682,8.94606 34.2315,15.57445 11.8844,4.1983 16.2552,4.86037 36.6153,4.42677 V 239.2048 c -0.5019,0.0135 -1.0722,0.097 -1.548,0.097 -5.6791,0 -13.6573,1.98636 -20.5981,5.12587 l -11.3301,5.12295 6.755,-7.12924 c 3.7161,-3.92146 7.9079,-7.12924 9.3139,-7.12924 1.406,0 2.5561,-0.79699 2.5561,-1.77128 0,-0.97429 1.7636,-2.24313 3.9203,-2.81997 3.902,-1.04364 5.5867,-5.43726 2.0851,-5.43726 -4.2008,0 -34.0429,7.97947 -48.3934,12.93956 -20.9265,7.23299 -41.5712,17.76015 -67.0442,34.18624 -4.2434,2.73634 -7.0103,7.57311 -6.373,9.81995 z"
     style="stroke-width:0.217271" />
  <style
     type="text/css"
     id="style1">.l68e3ce98-8dc4-412e-b601-89b60a99cc35 { stroke: #000000; fill: none; }.l5aa50d32-66c6-4799-90b0-8fd905465497 { stroke: #181493; fill: none; }.l5d63db71-b2fe-41a5-b18e-e7b9a2b29fdc { stroke: #297200; fill: none; }.l509b0ef1-efa1-4843-8be8-45016f2820d7 { stroke: #548ab2; fill: none; }.l1b900f44-0085-40f6-9d1b-fed16c382196 { stroke: #9e5000; fill: none; }.lb0697319-2783-4509-a414-59dbf53731e3 { stroke: #e53595; fill: none; }</style>
  <text
     y="1172"
     x="20"
     id="text13"><tspan
       id="tspan1">Glowforge® print settings</tspan><tspan
       x="20"
       dy="20"
       id="tspan2">Design id: 7BG1AYAA85UETQYFX4PLA13E7D6ZO</tspan><tspan
       x="20"
       dy="20"
       id="tspan3">Timestamp: Thu Oct 16 2025 14:38:26 GMT-0500 (Central Daylight Time)</tspan><tspan
       x="20"
       dy="20"
       id="tspan4">Version: 1.0</tspan><tspan
       x="20"
       dy="20"
       fill="#000000"
       id="tspan5">Step 0: #000000 Ignore</tspan><tspan
       x="20"
       dy="20"
       fill="#181493"
       id="tspan6">Step 1: #181493 Ignore</tspan><tspan
       x="20"
       dy="20"
       fill="#297200"
       id="tspan7">Step 2: #297200 Ignore</tspan><tspan
       x="20"
       dy="20"
       fill="#548ab2"
       id="tspan8">Step 3: #548ab2 Ignore</tspan><tspan
       x="20"
       dy="20"
       fill="#9e5000"
       id="tspan9">Step 4: #9e5000 Ignore</tspan><tspan
       x="20"
       dy="20"
       fill="#e53595"
       id="tspan10">Step 5: #e53595 Cut::Cartboard Trace::Manual</tspan><tspan
       x="20"
       dy="20"
       fill="#e53595"
       id="tspan11">Step 5: #e53595 Speed=500</tspan><tspan
       x="20"
       dy="20"
       fill="#e53595"
       id="tspan12">Step 5: #e53595 Precision Power=35</tspan><tspan
       x="20"
       dy="20"
       fill="#e53595"
       id="tspan13">Step 5: #e53595 # of Passes=1</tspan></text>
</svg>
